<svg width="345" height="32" fill="none" xmlns="http://www.w3.org/2000/svg"><path d="M28.027.22c-1.247.068-3.486.102-5.879.102-2.307 0-4.75-.034-6.186-.102v.7c2.102.103 2.478.462 2.478 3.008v8.255H10.56V3.928c0-2.546.36-2.905 2.496-3.008v-.7C11.69.288 9.382.322 7.212.322 4.682.322 2.307.288.974.22v.7c2.102.103 2.495.462 2.495 3.008v17.363c0 2.547-.359 2.906-2.495 3.008V25c1.333-.068 3.709-.102 6.238-.102 2.17 0 4.478.034 5.845.102v-.7c-2.102-.103-2.495-.462-2.495-3.009v-8.408h7.878v8.409c0 2.546-.342 2.905-2.478 3.007V25c1.436-.068 3.88-.102 6.186-.102 2.393 0 4.632.034 5.88.102v-.7c-2.086-.103-2.479-.462-2.479-3.009V3.928c0-2.546.36-2.905 2.478-3.008v-.7zm11.357 6.118c-5.435 0-9.007 2.53-9.007 9.604 0 7.058 3.572 9.554 9.007 9.554 5.417 0 8.989-2.495 8.989-9.554 0-7.075-3.572-9.604-8.99-9.604zm0 .7c1.401 0 2.444 2.632 2.444 8.904 0 6.255-1.043 8.853-2.444 8.853-1.402 0-2.461-2.598-2.461-8.853 0-6.272 1.06-8.903 2.46-8.903zm23.148 8.546c4.82-.36 7.007-2.274 7.007-4.649 0-2.358-1.811-4.067-7.246-4.067-1.538 0-3.811.136-6.187.136-1.828 0-3.964-.102-4.904-.136v.735c1.435 0 1.965.563 1.965 2.529v11.62c0 1.95-.53 2.513-1.965 2.513V25c1.008-.034 3.298-.137 5.246-.137 2.53 0 5.11.137 6.614.137 5.332 0 7.11-1.777 7.11-4.683 0-3.024-1.932-4.614-7.64-4.733zm-3.076-5.452c0-2.102.325-2.53 1.299-2.53 2.034 0 2.41 1.76 2.41 3.812 0 2.631-.616 4.033-3.709 4.101v-5.383zm1.401 14.133c-1.042 0-1.4-.393-1.4-2.512v-5.537h.358c2.837 0 3.913 1.23 3.913 4.136 0 1.948-.478 3.913-2.87 3.913zM82.228 6.338c-5.434 0-9.006 2.53-9.006 9.604 0 7.058 3.572 9.554 9.007 9.554 5.417 0 8.989-2.495 8.989-9.554 0-7.075-3.572-9.604-8.99-9.604zm0 .7c1.402 0 2.444 2.632 2.444 8.904 0 6.255-1.042 8.853-2.444 8.853-1.4 0-2.46-2.598-2.46-8.853 0-6.272 1.06-8.903 2.46-8.903zm21.132-.7c-5.075 0-9.006 2.871-9.006 9.604 0 7.058 3.76 9.554 8.442 9.554 4.17 0 6.443-3.128 7.315-5.948l-.598-.222c-1.538 2.136-3.282 2.341-4.239 2.341-2.05 0-4.375-1.281-4.375-6.22 0-3.504.735-8.084 4.068-8.084.632 0 1.076.171 1.401.41-1.538.428-2.871 1.76-2.871 3.504 0 1.863 1.162 3.162 3.213 3.162 1.965 0 3.367-1.487 3.367-3.401 0-1.607-.838-2.906-2.102-3.64-.94-.564-2.581-1.06-4.615-1.06zm24.892.53c-1.111 0-3.486.136-5.845.136-2.307 0-4.648-.136-5.776-.136h-3.948c.171 2.204.239 4.375.239 5.468 0 .974-.034 1.915-.102 2.513h.803c1.231-5.179 3.298-7.246 4.666-7.246h1.008v14.15c0 2.273-1.111 2.512-3.008 2.512V25c1.265-.034 3.709-.137 6.187-.137 2.495 0 4.87.103 6.135.137v-.735c-1.897 0-3.008-.598-3.008-2.871V7.603h1.008c1.368 0 3.435 2.067 4.666 7.246h.803c-.068-.598-.102-1.539-.102-2.513 0-1.093.068-3.264.239-5.468h-3.965zm28.634 0c-1.008.034-3.281.136-5.246.136-1.812 0-3.743-.102-4.615-.136v.735c1.094 0 1.538.495 1.607 2.153l-5.64 11.023V10.132c0-1.966.427-2.53 1.624-2.53v-.734c-.957.034-3.025.136-4.973.136-1.829 0-3.965-.102-4.905-.136v.735c1.435 0 1.965.563 1.965 2.529v11.62c0 1.95-.53 2.513-1.965 2.513V25c1.008-.034 3.298-.137 5.246-.137 1.829 0 3.743.103 4.632.137v-.735c-1.077 0-1.538-.461-1.607-1.965l5.623-11.074v10.527c0 1.948-.427 2.512-1.607 2.512V25c.94-.034 3.008-.137 4.974-.137 1.811 0 3.947.103 4.887.137v-.735c-1.435 0-1.948-.564-1.948-2.512V10.132c0-1.966.513-2.53 1.948-2.53v-.734zm30.968 15.466c-.94-2.341-1.163-4.084-2.239-5.35-.94-1.076-2.53-1.828-5.008-1.828-.512 0-1.076.034-1.657.103 1.213-.65 1.589-1.743 2.016-3.384.804-3.179.906-4.648 3.316-4.802-1.47.769-2.034 1.965-2.034 3.059 0 2.05 2 2.786 3.401 2.786 1.777 0 3.11-1.145 3.11-3.213 0-1.966-1.213-3.367-3.982-3.367-3.042 0-3.571 1.658-4.375 4.939-.683 2.82-1.179 3.93-3.964 4.119v-5.264c0-1.966.529-2.53 1.965-2.53v-.734c-.94.034-3.042.136-4.939.136-1.88 0-4.273-.102-5.281-.136v.735c1.436 0 1.965.563 1.965 2.529v11.62c0 1.95-.529 2.513-1.965 2.513V25c.94-.034 3.11-.137 5.007-.137 1.88 0 4.205.103 5.213.137v-.735c-1.436 0-1.965-.564-1.965-2.512v-5.725c.17-.017.341-.017.495-.017 1.111 0 1.914.41 2.41.974 1.025 1.128 1.623 3.572 1.794 4.375.667 2.94 2.683 3.845 5.777 3.845.871 0 1.777-.068 2.717-.205v-.735c-.974-.137-1.282-.7-1.777-1.931zM206.456 6.97c-.854 0-2.7-.034-3.691-.136v.734c1.452.103 2.563 1.23 2.563 3.52 0 .975-.188 2.171-.666 3.59l-1.453 4.477-4.324-10.254a1.28 1.28 0 01-.136-.547c0-.769 1.042-.786 2.102-.786v-.734a63.666 63.666 0 01-5.076.205c-1.76 0-3.845-.069-5.708-.205v.734c.495 0 1.23.171 2.034 1.966l8.169 18.047-.188.564c-.633 1.93-1.829 2.802-3.333 2.802-.273 0-.837 0-1.179-.068 1.572-.496 2.273-1.675 2.273-2.7 0-1.71-1.231-2.58-3.162-2.58-2.051 0-3.418 1.042-3.418 2.7 0 2.443 2.837 3.28 4.751 3.28 1.726 0 2.632-.341 3.264-.837.667-.53 1.111-1.333 1.538-2.53l1.47-4.22 4.375-13.023c.769-2.273 1.607-3.076 2.478-3.4v-.736c-.53.103-1.846.137-2.683.137zm21.286-.102c-.872.034-2.974.136-4.341.136-1.572 0-2.581-.136-4.956-.136-1.692 0-2.324.068-3.435.068-.769 0-1.709-.034-2.102-.068v.735c1.811 0 2.785.495 2.785 2.187 0 .103-.017.222-.017.342-.29 3.81-.735 8.528-1.965 11.536-.701 1.76-1.743 3.161-3.247 3.161-.256 0-.427-.034-.53-.068 1.47-.633 2.803-1.726 2.803-3.572 0-1.607-.991-3.076-3.042-3.076-1.966 0-3.367 1.282-3.367 3.486 0 2.803 2.239 3.897 3.948 3.897 1.828 0 3.162-1.197 4.136-3.64 1.23-3.128 1.606-7.315 1.999-11.724.171-1.863.137-2.53 1.504-2.53h.308c1.196 0 1.606.564 1.606 2.53v11.62c0 1.95-.513 2.513-1.948 2.513V25c1.008-.034 3.315-.137 5.212-.137 1.897 0 3.777.103 4.649.137v-.735c-1.18 0-1.607-.564-1.607-2.512V10.132c0-1.966.393-2.53 1.607-2.53v-.734zm13.321 7.605c-.666 0-1.469.017-2.46.05v-4.391c0-1.966.529-2.53 1.965-2.53v-.734c-1.026.034-3.333.136-5.213.136-1.897 0-3.776-.102-4.665-.136v.735c1.196 0 1.623.563 1.623 2.529v11.62c0 1.95-.427 2.513-1.623 2.513V25c.957-.034 3.093-.137 4.836-.137 2 0 3.401.137 4.905.137 6.785 0 9.229-2.905 9.229-5.571 0-2.786-2.649-4.956-8.597-4.956zm-1.127 9.792c-1.077 0-1.333-.17-1.333-1.299v-7.724h.102c3.298 0 4.529 1.247 4.529 4.58 0 2.273-.632 4.443-3.298 4.443zm26.668-17.397c-1.11 0-3.486.136-5.844.136-2.307 0-4.649-.136-5.777-.136h-3.947c.171 2.204.239 4.375.239 5.468 0 .974-.034 1.915-.103 2.513h.804c1.23-5.179 3.298-7.246 4.665-7.246h1.008v14.15c0 2.273-1.11 2.512-3.007 2.512V25c1.264-.034 3.708-.137 6.186-.137 2.495 0 4.871.103 6.135.137v-.735c-1.897 0-3.007-.598-3.007-2.871V7.603h1.008c1.367 0 3.435 2.067 4.665 7.246h.804c-.069-.598-.103-1.539-.103-2.513 0-1.093.068-3.264.239-5.468h-3.965zm21.748.102c-.855 0-2.701-.034-3.692-.136v.734c1.453.103 2.564 1.23 2.564 3.52 0 .975-.188 2.171-.667 3.59l-1.453 4.477-4.323-10.254a1.27 1.27 0 01-.137-.547c0-.769 1.043-.786 2.102-.786v-.734a63.624 63.624 0 01-5.076.205c-1.76 0-3.845-.069-5.708-.205v.734c.496 0 1.231.171 2.034 1.966l8.169 18.047-.188.564c-.632 1.93-1.829 2.802-3.332 2.802-.274 0-.838 0-1.18-.068 1.573-.496 2.273-1.675 2.273-2.7 0-1.71-1.23-2.58-3.161-2.58-2.051 0-3.418 1.042-3.418 2.7 0 2.443 2.837 3.28 4.751 3.28 1.726 0 2.632-.341 3.264-.837.666-.53 1.111-1.333 1.538-2.53l1.47-4.22 4.375-13.023c.769-2.273 1.606-3.076 2.478-3.4v-.736c-.53.103-1.846.137-2.683.137zm18.038-.632c-2.375 0-4.221.854-5.315 2.632V6.492c-1.743.341-3.742.478-6.084.478-.7 0-1.435-.034-2.17-.102v.735c1.47 0 1.965.974 1.965 3.076v17.397c0 1.965-.53 2.53-1.965 2.53v.734c.94-.034 2.939-.154 4.819-.154 2.598 0 5.161.12 6.443.154v-.735c-1.88 0-3.008-.598-3.008-2.87v-2.906c.889.496 2.068.667 3.264.667 4.375 0 8.152-2.427 8.152-10.374 0-5.947-2.632-8.784-6.101-8.784zm-4.084 18.098c-.41 0-.872-.068-1.231-.29V10.678c0-1.47 1.231-2.513 2.529-2.513 1.282 0 2.342 1.573 2.342 7.776 0 5.657-1.06 8.494-3.64 8.494zm23.661-9.963c-.667 0-1.47.017-2.461.05v-4.391c0-1.966.53-2.53 1.965-2.53v-.734c-1.025.034-3.332.136-5.212.136-1.897 0-3.777-.102-4.666-.136v.735c1.197 0 1.624.563 1.624 2.529v11.62c0 1.95-.427 2.513-1.624 2.513V25c.957-.034 3.094-.137 4.837-.137 1.999 0 3.401.137 4.904.137 6.785 0 9.229-2.905 9.229-5.571 0-2.786-2.649-4.956-8.596-4.956zm18.713-7.605c-.94.034-3.076.136-4.888.136-1.965 0-4.306-.102-5.332-.136v.735c1.436 0 1.966.563 1.966 2.529v11.62c0 1.95-.53 2.513-1.966 2.513V25c.957-.034 3.162-.137 4.974-.137 1.965 0 4.238.103 5.246.137v-.735c-1.435 0-1.948-.564-1.948-2.512V10.132c0-1.966.513-2.53 1.948-2.53v-.734zm-19.841 17.397c-1.077 0-1.333-.17-1.333-1.299v-7.724h.102c3.299 0 4.529 1.247 4.529 4.58 0 2.273-.632 4.443-3.298 4.443z" fill="#000"/></svg>
