<svg width="279" height="26" fill="none" xmlns="http://www.w3.org/2000/svg"><path d="M22.428.736c-.597.037-1.036.112-1.316.224-.261.112-.439.327-.532.644-.093.317-.14.83-.14 1.54v13.888c0 .71.047 1.223.14 1.54.112.317.299.532.56.644.261.112.69.187 1.288.224V20c-1.008-.056-2.576-.084-4.704-.084-2.147 0-3.799.028-4.956.084v-.56c.597-.037 1.027-.112 1.288-.224.28-.112.467-.327.56-.644.093-.317.14-.83.14-1.54v-6.72h-6.3v6.72c0 .71.047 1.223.14 1.54.112.317.299.532.56.644.261.112.69.187 1.288.224V20c-1.083-.056-2.641-.084-4.676-.084-2.259 0-3.92.028-4.984.084v-.56c.597-.037 1.027-.112 1.288-.224.28-.112.467-.327.56-.644.093-.317.14-.83.14-1.54V3.144c0-.71-.056-1.223-.168-1.54-.093-.317-.27-.532-.532-.644C1.811.848 1.382.773.784.736v-.56C1.848.232 3.509.26 5.768.26c2.016 0 3.575-.028 4.676-.084v.56C9.847.773 9.408.848 9.128.96c-.261.112-.439.327-.532.644-.093.317-.14.83-.14 1.54v6.608h6.3V3.144c0-.71-.056-1.223-.168-1.54-.093-.317-.27-.532-.532-.644-.261-.112-.69-.187-1.288-.224v-.56c1.157.056 2.81.084 4.956.084 2.128 0 3.696-.028 4.704-.084v.56zm9.304 4.34c2.296 0 4.07.607 5.32 1.82 1.25 1.195 1.876 3.145 1.876 5.852 0 2.707-.625 4.657-1.876 5.852-1.25 1.195-3.024 1.792-5.32 1.792-2.296 0-4.07-.597-5.32-1.792s-1.876-3.145-1.876-5.852c0-2.707.625-4.657 1.876-5.852 1.25-1.213 3.024-1.82 5.32-1.82zm0 .56c-.597 0-1.073.588-1.428 1.764-.355 1.176-.532 2.959-.532 5.348 0 2.39.177 4.172.532 5.348.355 1.157.83 1.736 1.428 1.736.597 0 1.073-.579 1.428-1.736.355-1.176.532-2.959.532-5.348 0-2.39-.177-4.172-.532-5.348-.355-1.176-.83-1.764-1.428-1.764zm18.729 6.832c2.221.037 3.79.364 4.704.98.933.616 1.4 1.55 1.4 2.8 0 1.232-.439 2.165-1.316 2.8-.878.635-2.334.952-4.368.952-.28 0-.943-.019-1.988-.056a123.698 123.698 0 00-3.304-.056c-.635 0-2.035.037-4.2.112v-.588c.578 0 .98-.14 1.204-.42.242-.299.364-.83.364-1.596V8.1c0-.765-.122-1.288-.364-1.568-.224-.299-.626-.448-1.204-.448v-.588c2.016.075 3.322.112 3.92.112.765 0 1.764-.019 2.996-.056a69.595 69.595 0 011.96-.056c3.864 0 5.796 1.083 5.796 3.248 0 1.008-.476 1.848-1.428 2.52-.934.672-2.324 1.073-4.172 1.204zm-2.464-.056c1.176-.019 1.96-.28 2.352-.784.41-.523.616-1.353.616-2.492 0-.952-.14-1.699-.42-2.24-.262-.541-.766-.812-1.512-.812-.41 0-.69.13-.84.392-.13.261-.196.803-.196 1.624v4.312zm1.12 7c.877 0 1.474-.29 1.792-.868.336-.579.504-1.335.504-2.268 0-1.176-.243-2.016-.728-2.52-.486-.523-1.288-.784-2.408-.784h-.28v4.424c0 .821.074 1.363.224 1.624.168.261.466.392.896.392zm17.29-14.336c2.297 0 4.07.607 5.32 1.82 1.251 1.195 1.877 3.145 1.877 5.852 0 2.707-.626 4.657-1.876 5.852-1.25 1.195-3.024 1.792-5.32 1.792-2.296 0-4.07-.597-5.32-1.792s-1.876-3.145-1.876-5.852c0-2.707.625-4.657 1.876-5.852 1.25-1.213 3.024-1.82 5.32-1.82zm0 .56c-.597 0-1.073.588-1.427 1.764-.355 1.176-.532 2.959-.532 5.348 0 2.39.177 4.172.532 5.348.354 1.157.83 1.736 1.428 1.736.597 0 1.073-.579 1.428-1.736.354-1.176.532-2.959.532-5.348 0-2.39-.178-4.172-.532-5.348-.355-1.176-.83-1.764-1.428-1.764zm17.106-.56c.765 0 1.465.084 2.1.252.653.15 1.185.345 1.596.588.522.299.933.7 1.232 1.204.298.504.448 1.073.448 1.708 0 .784-.252 1.437-.756 1.96-.504.504-1.148.756-1.932.756-.803 0-1.438-.224-1.904-.672-.448-.467-.672-1.083-.672-1.848 0-.672.214-1.26.644-1.764a3.171 3.171 0 011.652-1.036c-.28-.224-.654-.336-1.12-.336-1.195 0-2.035.644-2.52 1.932-.486 1.27-.728 2.781-.728 4.536 0 1.792.336 3.07 1.008 3.836.672.765 1.502 1.148 2.492 1.148 1.362 0 2.492-.625 3.388-1.876l.476.168a7.73 7.73 0 01-2.1 3.36c-.971.933-2.222 1.4-3.752 1.4-2.035 0-3.668-.607-4.9-1.82-1.232-1.213-1.848-3.155-1.848-5.824 0-2.557.653-4.47 1.96-5.74 1.325-1.288 3.07-1.932 5.236-1.932zm23.286.42a55.62 55.62 0 00-.196 4.368c0 .859.028 1.53.084 2.016h-.644c-.318-1.307-.691-2.39-1.12-3.248-.43-.877-.878-1.521-1.344-1.932-.448-.41-.868-.616-1.26-.616h-.812v11.032c0 .859.196 1.456.588 1.792.41.336 1.017.504 1.82.504V20l-.812-.028a209.18 209.18 0 00-4.088-.084c-.635 0-2.016.028-4.144.084l-.812.028v-.588c.858 0 1.474-.121 1.848-.364.373-.261.56-.812.56-1.652V6.084h-.812c-.392 0-.822.205-1.288.616-.448.41-.887 1.055-1.316 1.932-.43.859-.803 1.941-1.12 3.248h-.644c.056-.485.084-1.157.084-2.016 0-1.27-.066-2.725-.196-4.368h3.164l1.54.028a49.96 49.96 0 003.08.084c1.194 0 2.24-.028 3.136-.084l1.54-.028h3.164zm19.915.588c-.578 0-.989.15-1.232.448-.224.28-.336.803-.336 1.568v9.296c0 .765.112 1.297.336 1.596.243.28.654.42 1.232.42V20c-2.016-.075-3.322-.112-3.92-.112-.634 0-1.96.037-3.976.112v-.588c.486 0 .822-.14 1.008-.42.187-.299.28-.83.28-1.596V8.968l-4.508 8.876c.038.597.15 1.008.336 1.232.187.224.504.336.952.336V20c-1.866-.075-3.098-.112-3.696-.112-.634 0-2.034.037-4.2.112v-.588c.579 0 .98-.14 1.204-.42.243-.299.364-.83.364-1.596V8.1c0-.765-.121-1.288-.364-1.568-.224-.299-.625-.448-1.204-.448v-.588c2.016.075 3.323.112 3.92.112.635 0 1.96-.037 3.976-.112v.588c-.485 0-.821.15-1.008.448-.186.28-.28.803-.28 1.568v8.512l4.508-8.82c-.018-.653-.13-1.101-.336-1.344-.186-.243-.504-.364-.952-.364v-.588c1.867.075 3.099.112 3.696.112.635 0 2.035-.037 4.2-.112v.588zm25.141 11.788c.224.541.42.924.588 1.148.187.205.467.336.84.392V20c-.746.112-1.474.168-2.184.168-1.306 0-2.342-.233-3.108-.7-.746-.467-1.25-1.26-1.512-2.38a15.64 15.64 0 00-.56-1.876c-.224-.69-.513-1.232-.868-1.624-.448-.523-1.092-.784-1.932-.784l-.392.028v4.564c0 .765.112 1.297.336 1.596.243.28.654.42 1.232.42V20c-2.165-.075-3.556-.112-4.172-.112-.653 0-1.988.037-4.004.112v-.588c.579 0 .98-.14 1.204-.42.243-.299.364-.83.364-1.596V8.1c0-.765-.121-1.288-.364-1.568-.224-.299-.625-.448-1.204-.448v-.588c2.166.075 3.575.112 4.228.112.616 0 1.932-.037 3.948-.112v.588c-.578 0-.989.15-1.232.448-.224.28-.336.803-.336 1.568v4.228c.728-.056 1.279-.196 1.652-.42.392-.224.691-.55.896-.98.206-.43.411-1.064.616-1.904.262-1.027.495-1.801.7-2.324.224-.523.551-.924.98-1.204.43-.28 1.036-.42 1.82-.42 1.064 0 1.858.243 2.38.728.542.485.812 1.139.812 1.96 0 .803-.233 1.437-.7 1.904-.466.448-1.064.672-1.792.672a3.397 3.397 0 01-1.876-.56c-.56-.373-.84-.933-.84-1.68 0-.467.131-.915.392-1.344.262-.43.672-.793 1.232-1.092-.56.037-.989.168-1.288.392a2.03 2.03 0 00-.672.924c-.149.392-.326.999-.532 1.82l-.168.7c-.186.765-.392 1.353-.616 1.764-.205.392-.532.7-.98.924.448-.056.878-.084 1.288-.084 1.83 0 3.174.495 4.032 1.484.262.299.467.635.616 1.008.168.373.355.877.56 1.512.206.653.411 1.241.616 1.764zM166.903 5.58c1.064 0 1.783-.037 2.156-.112v.588c-.392.13-.756.401-1.092.812-.317.41-.616 1.045-.896 1.904l-3.5 10.416-1.176 3.388c-.336.97-.746 1.643-1.232 2.016-.578.448-1.446.672-2.604.672a5.258 5.258 0 01-2.604-.672c-.802-.43-1.204-1.083-1.204-1.96 0-.653.252-1.176.756-1.568.504-.392 1.167-.588 1.988-.588.784 0 1.4.177 1.848.532.448.355.672.868.672 1.54 0 .448-.158.868-.476 1.26-.298.41-.746.71-1.344.896.187.037.504.056.952.056 1.288 0 2.175-.747 2.66-2.24l.14-.476-6.524-14.42c-.28-.635-.56-1.055-.84-1.26-.261-.205-.522-.308-.784-.308v-.588c1.494.112 3.015.168 4.564.168 1.214 0 2.567-.056 4.06-.168v.588c-.541 0-.961.037-1.26.112-.28.075-.42.243-.42.504 0 .15.038.299.112.448l3.444 8.204 1.176-3.584c.355-1.083.532-2.035.532-2.856 0-.877-.186-1.559-.56-2.044a1.938 1.938 0 00-1.484-.784v-.588c.691.075 1.671.112 2.94.112zm17.24.504c-.485 0-.821.14-1.008.42-.187.28-.28.812-.28 1.596v9.296c0 .765.093 1.297.28 1.596.187.28.523.42 1.008.42V20c-1.867-.075-3.108-.112-3.724-.112-.616 0-2.007.037-4.172.112v-.588c.579 0 .98-.14 1.204-.42.243-.299.364-.83.364-1.596V8.1c0-.765-.093-1.288-.28-1.568-.187-.299-.523-.448-1.008-.448h-.252c-.355 0-.607.065-.756.196-.149.112-.252.28-.308.504-.037.224-.084.663-.14 1.316-.205 2.277-.42 4.135-.644 5.572-.205 1.419-.523 2.688-.952 3.808-.392.99-.859 1.727-1.4 2.212-.541.467-1.176.7-1.904.7-.803 0-1.531-.261-2.184-.784-.653-.523-.98-1.297-.98-2.324 0-.859.243-1.54.728-2.044.504-.504 1.157-.756 1.96-.756.784 0 1.381.243 1.792.728.429.467.644 1.045.644 1.736 0 1.27-.747 2.221-2.24 2.856.112.037.252.056.42.056 1.064 0 1.932-.84 2.604-2.52.429-1.083.756-2.399.98-3.948.243-1.568.439-3.332.588-5.292.056-.747-.103-1.27-.476-1.568-.355-.299-.933-.448-1.736-.448v-.588c.411.037.971.056 1.68.056.485 0 .849-.01 1.092-.028l1.652-.028c.747 0 1.549.019 2.408.056.709.037 1.232.056 1.568.056.448 0 1.605-.037 3.472-.112v.588zm10.82 5.488c2.277 0 3.994.373 5.152 1.12 1.157.728 1.736 1.68 1.736 2.856 0 .765-.252 1.484-.756 2.156-.504.672-1.307 1.223-2.408 1.652-1.102.43-2.511.644-4.228.644-.336 0-.896-.019-1.68-.056a55.571 55.571 0 00-2.24-.056c-.56 0-1.848.037-3.864.112v-.588c.485 0 .821-.14 1.008-.42.186-.299.28-.83.28-1.596V8.1c0-.765-.094-1.288-.28-1.568-.187-.299-.523-.448-1.008-.448v-.588c1.866.075 3.108.112 3.724.112.616 0 2.006-.037 4.172-.112v.588c-.579 0-.99.15-1.232.448-.224.28-.336.803-.336 1.568v3.5l1.96-.028zm-.896 7.84c1.754 0 2.632-1.185 2.632-3.556 0-1.325-.28-2.268-.84-2.828-.542-.56-1.466-.84-2.772-.84h-.084v6.188c0 .448.065.737.196.868.13.112.42.168.868.168zm24.704-13.916a56.112 56.112 0 00-.196 4.368c0 .859.028 1.53.084 2.016h-.644c-.317-1.307-.69-2.39-1.12-3.248-.429-.877-.877-1.521-1.344-1.932-.448-.41-.868-.616-1.26-.616h-.812v11.032c0 .859.196 1.456.588 1.792.411.336 1.018.504 1.82.504V20l-.812-.028c-2.128-.056-3.49-.084-4.088-.084-.634 0-2.016.028-4.144.084l-.812.028v-.588c.859 0 1.475-.121 1.848-.364.374-.261.56-.812.56-1.652V6.084h-.812c-.392 0-.821.205-1.288.616-.448.41-.886 1.055-1.316 1.932-.429.859-.802 1.941-1.12 3.248h-.644c.056-.485.084-1.157.084-2.016 0-1.27-.065-2.725-.196-4.368h3.164l1.54.028c.896.056 1.923.084 3.08.084 1.195 0 2.24-.028 3.136-.084l1.54-.028h3.164zm14.394.084c1.064 0 1.783-.037 2.156-.112v.588c-.392.13-.756.401-1.092.812-.317.41-.616 1.045-.896 1.904l-3.5 10.416-1.176 3.388c-.336.97-.747 1.643-1.232 2.016-.579.448-1.447.672-2.604.672a5.258 5.258 0 01-2.604-.672c-.803-.43-1.204-1.083-1.204-1.96 0-.653.252-1.176.756-1.568.504-.392 1.167-.588 1.988-.588.784 0 1.4.177 1.848.532.448.355.672.868.672 1.54 0 .448-.159.868-.476 1.26-.299.41-.747.71-1.344.896.187.037.504.056.952.056 1.288 0 2.175-.747 2.66-2.24l.14-.476-6.524-14.42c-.28-.635-.56-1.055-.84-1.26-.261-.205-.523-.308-.784-.308v-.588c1.493.112 3.015.168 4.564.168 1.213 0 2.567-.056 4.06-.168v.588c-.541 0-.961.037-1.26.112-.28.075-.42.243-.42.504 0 .15.037.299.112.448l3.444 8.204 1.176-3.584c.355-1.083.532-2.035.532-2.856 0-.877-.187-1.559-.56-2.044a1.938 1.938 0 00-1.484-.784v-.588c.691.075 1.671.112 2.94.112zm14.644-.504c1.456 0 2.632.597 3.528 1.792.896 1.195 1.344 2.94 1.344 5.236 0 2.968-.597 5.096-1.792 6.384-1.194 1.27-2.772 1.904-4.732 1.904-1.082 0-1.95-.177-2.604-.532v2.324c0 .859.196 1.456.588 1.792.411.336 1.018.504 1.82.504v.588l-.812-.028c-2.24-.056-3.686-.084-4.34-.084-.56 0-1.848.037-3.864.112v-.588c.579 0 .98-.15 1.204-.448.243-.28.364-.803.364-1.568V8.548c0-.859-.121-1.484-.364-1.876-.224-.392-.625-.588-1.204-.588v-.588c.579.056 1.158.084 1.736.084 1.942 0 3.566-.13 4.872-.392v1.988c.859-1.4 2.278-2.1 4.256-2.1zm-3.276 14.476c1.027 0 1.764-.55 2.212-1.652.467-1.12.7-2.837.7-5.152 0-2.296-.168-3.901-.504-4.816-.336-.933-.793-1.4-1.372-1.4-.541 0-1.017.196-1.428.588-.392.373-.588.85-.588 1.428v10.78c.243.15.57.224.98.224zm19.125-7.98c2.277 0 3.995.373 5.152 1.12 1.157.728 1.736 1.68 1.736 2.856 0 .765-.252 1.484-.756 2.156-.504.672-1.307 1.223-2.408 1.652-1.101.43-2.511.644-4.228.644-.336 0-.896-.019-1.68-.056a55.571 55.571 0 00-2.24-.056c-.56 0-1.848.037-3.864.112v-.588c.485 0 .821-.14 1.008-.42.187-.299.28-.83.28-1.596V8.1c0-.765-.093-1.288-.28-1.568-.187-.299-.523-.448-1.008-.448v-.588c1.867.075 3.108.112 3.724.112.616 0 2.007-.037 4.172-.112v.588c-.579 0-.989.15-1.232.448-.224.28-.336.803-.336 1.568v3.5l1.96-.028zm14.98-5.488c-.579 0-.989.15-1.232.448-.224.28-.336.803-.336 1.568v9.296c0 .765.112 1.297.336 1.596.243.28.653.42 1.232.42V20c-2.165-.075-3.565-.112-4.2-.112-.635 0-1.96.037-3.976.112v-.588c.579 0 .98-.14 1.204-.42.243-.299.364-.83.364-1.596V8.1c0-.765-.121-1.288-.364-1.568-.224-.299-.625-.448-1.204-.448v-.588c2.165.075 3.584.112 4.256.112.597 0 1.904-.037 3.92-.112v.588zm-15.876 13.328c1.755 0 2.632-1.185 2.632-3.556 0-1.325-.28-2.268-.84-2.828-.541-.56-1.465-.84-2.772-.84h-.084v6.188c0 .448.065.737.196.868.131.112.42.168.868.168z" fill="#fff"/></svg>
