<svg xmlns="http://www.w3.org/2000/svg" viewBox="0 0 50 50"><path d="M42.373 28.783c0 4.875-3.96 8.842-8.832 8.842-1.616 0-3.16-.43-4.5-1.225.52 1.32 1.197 2.496 1.86 3.648.207.36.412.715.61 1.068.167.305.167.672-.003.975-.168.304-.482.497-.83.513-1.633.07-3.31.105-4.983.105l-.684-.002-.694.002c-1.69 0-3.37-.035-4.99-.105-.347-.016-.66-.21-.83-.512s-.17-.67 0-.972c.195-.355.4-.71.605-1.066.668-1.16 1.348-2.342 1.867-3.672-1.35.8-2.905 1.242-4.504 1.242-4.873 0-8.836-3.965-8.836-8.84 0-4.87 3.964-8.83 8.836-8.83.196 0 .392.005.587.018-.58-1.19-.886-2.508-.886-3.86 0-4.864 3.964-8.82 8.836-8.82 4.878 0 8.847 3.956 8.847 8.82 0 1.353-.31 2.67-.893 3.86.195-.012.392-.02.588-.02 4.87.004 8.83 3.965 8.83 8.833z"/></svg>