<svg width="106" height="41" viewBox="0 0 106 41" fill="none" xmlns="http://www.w3.org/2000/svg">
<path d="M34.7734 20.1797C34.7734 21.4661 34.5339 22.5417 34.0547 23.4062C33.5755 24.2656 32.8802 24.9141 31.9688 25.3516C31.0573 25.7839 29.9583 26 28.6719 26H25.5V14.5781H29.0156C30.1979 14.5781 31.2188 14.7917 32.0781 15.2188C32.9375 15.6406 33.6016 16.2682 34.0703 17.1016C34.5391 17.9297 34.7734 18.9557 34.7734 20.1797ZM32.8203 20.2344C32.8203 19.2969 32.6719 18.526 32.375 17.9219C32.0833 17.3177 31.651 16.8698 31.0781 16.5781C30.5104 16.2812 29.8099 16.1328 28.9766 16.1328H27.375V24.4297H28.7031C30.0833 24.4297 31.1146 24.0781 31.7969 23.375C32.4792 22.6719 32.8203 21.625 32.8203 20.2344ZM48.975 20.2734C48.975 21.1536 48.863 21.9557 48.6391 22.6797C48.4203 23.3984 48.0896 24.0182 47.6469 24.5391C47.2042 25.0547 46.6495 25.4531 45.9828 25.7344C45.3161 26.0156 44.5349 26.1562 43.6391 26.1562C42.7276 26.1562 41.9359 26.0156 41.2641 25.7344C40.5974 25.4531 40.0427 25.0521 39.6 24.5312C39.1625 24.0104 38.8344 23.388 38.6156 22.6641C38.3969 21.9401 38.2875 21.138 38.2875 20.2578C38.2875 19.0807 38.4802 18.0547 38.8656 17.1797C39.2563 16.2995 39.8474 15.6172 40.6391 15.1328C41.4359 14.6432 42.4411 14.3984 43.6547 14.3984C44.8422 14.3984 45.8292 14.6406 46.6156 15.125C47.4021 15.6094 47.9906 16.2917 48.3813 17.1719C48.7771 18.0469 48.975 19.0807 48.975 20.2734ZM40.2563 20.2734C40.2563 21.1536 40.376 21.9167 40.6156 22.5625C40.8552 23.2031 41.2224 23.6979 41.7172 24.0469C42.2172 24.3906 42.8578 24.5625 43.6391 24.5625C44.4255 24.5625 45.0661 24.3906 45.5609 24.0469C46.0557 23.6979 46.4203 23.2031 46.6547 22.5625C46.8891 21.9167 47.0063 21.1536 47.0063 20.2734C47.0063 18.9349 46.738 17.888 46.2016 17.1328C45.6703 16.3724 44.8214 15.9922 43.6547 15.9922C42.8734 15.9922 42.2302 16.1641 41.725 16.5078C41.225 16.8516 40.8552 17.3438 40.6156 17.9844C40.376 18.6198 40.2563 19.3828 40.2563 20.2734ZM53.0281 26V14.5781H54.9031V24.4062H59.7547V26H53.0281ZM63.3312 26V14.5781H65.2062V24.4062H70.0578V26H63.3312ZM76.8688 19.7891L79.5797 14.5781H81.6031L77.8063 21.5625V26H75.9391V21.6328L72.1344 14.5781H74.1734L76.8688 19.7891Z" fill="black"/>
<rect x="1" y="1" width="104" height="39" stroke="black" stroke-width="2"/>
</svg>
