<svg width="17" height="11" viewBox="0 0 17 11" fill="none" xmlns="http://www.w3.org/2000/svg">
<path fill-rule="evenodd" clip-rule="evenodd" d="M15.5776 2.18209C13.0159 0.683271 9.5108 0 6.18044 0C4.21641 0 2.41183 0.22173 0.795351 0.696594C0.382876 0.8165 0 1.16289 0 1.7767C0 2.38098 0.464034 2.8568 1.06938 2.8568C1.27944 2.8568 1.48663 2.77591 1.65276 2.73308C3.08306 2.34577 4.64512 2.19065 6.18522 2.19065C9.26637 2.19065 12.4525 2.86726 14.5063 4.09201C14.7231 4.21192 14.8606 4.26807 15.0916 4.26807C15.6645 4.26807 16.161 3.82556 16.161 3.2089C16.161 2.67028 15.9213 2.37717 15.5776 2.18209ZM12.7036 9.28198C10.7988 8.14574 8.58745 7.57666 6.104 7.57666C4.65461 7.57666 3.25773 7.75937 1.85704 8.07817C1.51522 8.14193 1.24023 8.37984 1.24023 8.85375C1.24023 9.22393 1.52954 9.56557 1.95825 9.56557C2.09765 9.56557 2.33157 9.49325 2.51776 9.45232C3.65971 9.21632 4.88185 9.0612 6.09636 9.0612C8.27236 9.0612 10.3223 9.58175 11.9665 10.5733C12.1393 10.678 12.2644 10.7418 12.4468 10.7418C12.8201 10.7418 13.1524 10.442 13.1524 10.0357C13.1524 9.61696 12.9872 9.44757 12.7036 9.28198ZM14.0499 5.96886C11.7899 4.62326 8.91878 3.88574 5.94934 3.88574C4.0531 3.88574 2.74979 4.15505 1.47418 4.5043C1.00346 4.63658 0.769531 4.96775 0.769531 5.44737C0.769531 5.93746 1.16768 6.33524 1.65559 6.33524C1.86183 6.33524 1.98595 6.26863 2.20842 6.20867C3.23483 5.93651 4.47512 5.73666 5.91019 5.73666C8.71063 5.73666 11.2695 6.46181 13.1151 7.55143C13.2832 7.64944 13.4369 7.74841 13.6832 7.74841C14.1769 7.74841 14.5674 7.35349 14.5674 6.8634C14.5674 6.46181 14.428 6.18583 14.0499 5.96886Z" fill="#9A9A9A"/>
</svg>
