<svg width="21" height="14" viewBox="0 0 21 14" fill="none" xmlns="http://www.w3.org/2000/svg">
<path fill-rule="evenodd" clip-rule="evenodd" d="M19.059 6.2601V4.29004H17.2659V6.2601H15.325V8.07987H17.2659V10.0491H19.059V8.07987H21V6.2601H19.059ZM13.0947 6.26008H6.88068V8.13156H11.2879C11.0697 10.7553 8.91781 11.8769 6.88714 11.8769C4.28921 11.8769 2.02097 9.80183 2.02097 6.89118C2.02097 4.0581 4.18335 1.87714 6.8928 1.87714C8.98407 1.87714 10.2164 3.23064 10.2164 3.23064L11.5077 1.87148C11.5077 1.87148 9.85032 0 6.82734 0C2.97853 0 0 3.29771 0 6.85805C0 10.3497 2.80156 13.7517 6.92512 13.7517C10.5525 13.7517 13.207 11.2297 13.207 7.50127C13.207 6.71421 13.0947 6.25927 13.0947 6.25927V6.26008Z" fill="#9A9A9A"/>
</svg>
