<svg width="18" height="18" viewBox="0 0 18 18" fill="none" xmlns="http://www.w3.org/2000/svg">
<path fill-rule="evenodd" clip-rule="evenodd" d="M13.5146 3.1582C12.9173 3.1582 12.4321 3.64256 12.4321 4.24146C12.4321 4.83954 12.9173 5.32472 13.5146 5.32472C14.1127 5.32472 14.5978 4.83954 14.5978 4.24146C14.5978 3.64256 14.1127 3.1582 13.5146 3.1582ZM8.99991 11.9783C7.35866 11.9783 6.02258 10.6422 6.02258 8.9993C6.02258 7.35723 7.35866 6.02197 8.99991 6.02197C10.642 6.02197 11.9781 7.35723 11.9781 8.9993C11.9781 10.6422 10.642 11.9783 8.99991 11.9783ZM8.9999 4.34521C6.43493 4.34521 4.34778 6.43319 4.34778 8.99897C4.34778 11.5656 6.43493 13.6535 8.9999 13.6535C11.5657 13.6535 13.6528 11.5656 13.6528 8.99897C13.6528 6.43319 11.5657 4.34521 8.9999 4.34521ZM16.3045 11.5421C16.2963 12.1026 16.2742 12.7006 16.1687 13.2668C15.8823 14.8074 15.0077 15.7442 13.4957 16.1312C12.8011 16.3088 12.0615 16.3145 11.2793 16.3194H11.2711C10.8907 16.3219 10.5004 16.3227 10.0782 16.3227C9.01623 16.3227 7.93461 16.3153 6.88735 16.3071L6.18454 16.3022C5.66745 16.2981 5.06037 16.2744 4.47456 16.1255C3.32912 15.8342 2.55022 15.1928 2.09205 14.1643C1.80241 13.5106 1.73696 12.7882 1.7116 12.1672C1.70587 12.033 1.69605 11.9062 1.68542 11.7835L1.6756 11.6607V6.39908C1.68623 6.3459 1.69933 6.27145 1.70178 6.18554C1.71978 5.56946 1.74514 5.01637 1.87769 4.48783C2.17141 3.32112 2.82595 2.53241 3.87975 2.07668C4.52038 1.79933 5.22892 1.73714 5.83763 1.71178C5.97181 1.70605 6.09945 1.69542 6.22217 1.6856L6.34408 1.67578H11.609C11.6524 1.68478 11.7072 1.69296 11.7702 1.69869C11.9486 1.71424 12.1253 1.72487 12.2955 1.73469C12.6342 1.75514 12.9533 1.77396 13.2486 1.82878C14.0226 1.97441 14.6542 2.26896 15.1239 2.7034C15.5951 3.14113 15.933 3.74821 16.1278 4.50911C16.302 5.19064 16.3086 5.918 16.316 6.68626V6.75253C16.3307 8.36188 16.3274 9.97367 16.3045 11.5421ZM17.9916 6.73764L17.9908 6.67137C17.9834 5.83601 17.9752 4.97203 17.751 4.09331C17.202 1.94561 15.7514 0.593174 13.5571 0.182452C13.1578 0.10718 12.77 0.0842716 12.3945 0.062181C12.2325 0.0531811 12.0787 0.0433631 11.9273 0.0302723C11.9191 0.028636 11.9118 0.0269996 11.9036 0.0253633C11.8815 0.0220906 11.8594 0.0171816 11.8357 0.0130907L11.7637 0H6.2811L6.25083 0.00245451C6.19519 0.00654537 6.13874 0.0106362 6.08392 0.0155452C5.97265 0.0245451 5.86792 0.033545 5.76974 0.0376359C5.05139 0.06709 4.11213 0.150543 3.21459 0.538357C1.67152 1.20598 0.675809 2.39724 0.253633 4.07858C0.0834534 4.75603 0.0490903 5.41875 0.028636 6.09292C0.0229088 6.11828 0.0179998 6.14283 0.0130907 6.16737L0 6.24019V11.7236L0.00245451 11.7538C0.00654537 11.8103 0.0114544 11.8659 0.0163634 11.9216C0.0253633 12.032 0.033545 12.1359 0.0376359 12.2349C0.06709 12.9688 0.154634 13.9277 0.562084 14.8449C1.23217 16.352 2.41033 17.3297 4.06222 17.7486C4.82639 17.9433 5.59056 17.9728 6.17146 17.9777L6.87509 17.9826C7.92481 17.9899 9.0097 17.9989 10.0782 17.9989C10.5045 17.9989 10.898 17.9973 11.2818 17.9949H11.2899C12.1392 17.9891 13.0179 17.9834 13.9105 17.7543C16.0582 17.2045 17.409 15.7588 17.8157 13.5735C17.9441 12.8813 17.9703 12.1703 17.9793 11.5657C18.0014 9.98414 18.0063 8.36007 17.9916 6.73764Z" fill="#9A9A9A"/>
</svg>
