<svg width="370" height="40" viewBox="0 0 370 40" fill="none" xmlns="http://www.w3.org/2000/svg">
<path d="M19.7592 27.6751H8.14663L5.93132 33.0121H0L11.148 8.10603H16.865L28.0487 33.0121H21.9745L19.7592 27.6751ZM17.9369 23.2987L13.9708 13.7633L10.0046 23.2987H17.9369Z" fill="black"/>
<path d="M42.192 8.10603C44.4073 8.10603 46.3248 8.47369 47.9446 9.20901C49.5883 9.94433 50.8507 10.988 51.7321 12.3401C52.6135 13.6921 53.0542 15.2932 53.0542 17.1434C53.0542 18.9698 52.6135 20.5709 51.7321 21.9467C50.8507 23.2987 49.5883 24.3424 47.9446 25.0777C46.3248 25.7893 44.4073 26.1451 42.192 26.1451H37.1539V33.0121H31.3655V8.10603H42.192ZM41.8704 21.4486C43.6093 21.4486 44.9313 21.0809 45.8365 20.3456C46.7417 19.5865 47.1943 18.5191 47.1943 17.1434C47.1943 15.7439 46.7417 14.6765 45.8365 13.9412C44.9313 13.1821 43.6093 12.8026 41.8704 12.8026H37.1539V21.4486H41.8704Z" fill="black"/>
<path d="M60.8164 8.10603L65.9974 15.649L71.1783 8.10603H77.9672L69.6419 20.0254L78.6461 33.0121H71.8215L65.9974 24.7575L60.2447 33.0121H53.563L62.4957 20.2744L54.1347 8.10603H60.8164Z" fill="black"/>
<path d="M81.298 8.10603H87.0507V24.3305L98.9847 8.10603H104.416V33.0121H98.6989V16.8231L86.7648 33.0121H81.298V8.10603Z" fill="black"/>
<path d="M129.759 12.8026H121.756V33.0121H116.039V12.8026H108.071V8.10603H129.759V12.8026Z" fill="black"/>
<path d="M152.76 28.3867V33.0121H133.394V8.10603H152.295V12.7314H139.146V18.1396H150.759V22.6227H139.146V28.3867H152.76Z" fill="black"/>
<path d="M167.118 22.9785H163.117V33.0121H157.364V8.10603H163.117V18.1752H167.261L173.836 8.10603H179.946L171.763 20.1321L180.196 33.0121H173.621L167.118 22.9785Z" fill="black"/>
<path d="M201.744 12.8026H193.741V33.0121H188.024V12.8026H180.056V8.10603H201.744V12.8026Z" fill="black"/>
<path d="M226.879 8.10603L216.231 27.8174C215.207 29.715 213.968 31.1501 212.515 32.1226C211.086 33.0951 209.526 33.5814 207.835 33.5814C206.524 33.5814 205.167 33.2967 203.761 32.7274L205.155 28.3511C206.155 28.6594 206.989 28.8136 207.656 28.8136C208.371 28.8136 209.014 28.6476 209.585 28.3155C210.157 27.9597 210.681 27.4141 211.158 26.6788L211.372 26.3942L201.51 8.10603H207.692L214.338 21.4841L221.198 8.10603H226.879Z" fill="black"/>
<path d="M240.456 8.10603C242.672 8.10603 244.589 8.47369 246.209 9.20901C247.853 9.94433 249.115 10.988 249.996 12.3401C250.878 13.6921 251.318 15.2932 251.318 17.1434C251.318 18.9698 250.878 20.5709 249.996 21.9467C249.115 23.2987 247.853 24.3424 246.209 25.0777C244.589 25.7893 242.672 26.1451 240.456 26.1451H235.418V33.0121H229.63V8.10603H240.456ZM240.135 21.4486C241.874 21.4486 243.196 21.0809 244.101 20.3456C245.006 19.5865 245.459 18.5191 245.459 17.1434C245.459 15.7439 245.006 14.6765 244.101 13.9412C243.196 13.1821 241.874 12.8026 240.135 12.8026H235.418V21.4486H240.135Z" fill="black"/>
<path d="M278.076 8.10603V33.0121H272.288V22.8006H260.925V33.0121H255.137V8.10603H260.925V17.9261H272.288V8.10603H278.076Z" fill="black"/>
<path d="M296.455 16.2894C299.504 16.2894 301.839 16.9655 303.459 18.3175C305.102 19.6695 305.924 21.6739 305.924 24.3305C305.924 27.1532 305.019 29.3117 303.209 30.8061C301.422 32.2768 298.897 33.0121 295.634 33.0121H284.343V8.10603H290.095V16.2894H296.455ZM295.312 28.7425C296.813 28.7425 297.98 28.3748 298.814 27.6395C299.671 26.9042 300.1 25.8368 300.1 24.4373C300.1 21.8518 298.504 20.5591 295.312 20.5591H290.095V28.7425H295.312ZM309.104 8.10603H314.857V33.0121H309.104V8.10603Z" fill="black"/>
<path d="M321.085 8.10603H326.838V24.3305L338.772 8.10603H344.203V33.0121H338.486V16.8231L326.552 33.0121H321.085V8.10603ZM332.626 6.50492C328.053 6.50492 325.742 4.69034 325.695 1.06117H329.661C329.708 2.79274 330.697 3.65852 332.626 3.65852C333.579 3.65852 334.306 3.44504 334.806 3.01808C335.306 2.5674 335.568 1.9151 335.592 1.06117H339.558C339.534 2.84018 338.951 4.19222 337.807 5.1173C336.664 6.04238 334.937 6.50492 332.626 6.50492Z" fill="black"/>
<path d="M359.881 40V32.4855H361.096V38.591H363.954V35.4884C363.954 34.3024 364.202 33.4011 364.698 32.7844C365.193 32.1676 365.908 31.8593 366.841 31.8593C367.823 31.8593 368.576 32.1961 369.1 32.8698C369.624 33.5339 369.886 34.4875 369.886 35.7304V40H359.881ZM368.757 35.7873C368.757 34.9713 368.599 34.3499 368.285 33.9229C367.97 33.496 367.508 33.2825 366.899 33.2825C365.688 33.2825 365.083 34.1174 365.083 35.7873V38.591H368.757V35.7873Z" fill="black"/>
<path d="M359.881 21.6995H369.886V23.0942H361.124V27.5062L364.054 27.6058C365.436 27.6532 366.556 27.7671 367.413 27.9474C368.271 28.1181 368.919 28.3933 369.357 28.7728C369.786 29.1523 370 29.6647 370 30.3099C370 30.604 369.962 30.9029 369.886 31.2065L368.614 31.1069C368.652 30.9551 368.671 30.8033 368.671 30.6514C368.671 30.2435 368.509 29.9161 368.185 29.6694C367.851 29.4227 367.356 29.2377 366.698 29.1144C366.041 28.991 365.174 28.9104 364.097 28.8724L359.881 28.7159V21.6995Z" fill="black"/>
<path d="M370 14.1133C370 15.119 369.781 16.0251 369.343 16.8316C368.895 17.6381 368.28 18.2738 367.499 18.7387C366.718 19.1941 365.846 19.4218 364.883 19.4218C363.921 19.4218 363.049 19.1941 362.268 18.7387C361.487 18.2738 360.877 17.6381 360.438 16.8316C359.991 16.0251 359.767 15.119 359.767 14.1133C359.767 13.117 359.991 12.2157 360.438 11.4092C360.877 10.6027 361.487 9.97176 362.268 9.51633C363.04 9.06091 363.911 8.8332 364.883 8.8332C365.855 8.8332 366.732 9.06091 367.513 9.51633C368.285 9.97176 368.895 10.6027 369.343 11.4092C369.781 12.2157 370 13.117 370 14.1133ZM368.728 14.1133C368.728 13.3827 368.561 12.728 368.228 12.1493C367.894 11.561 367.437 11.1008 366.856 10.7688C366.265 10.4272 365.607 10.2564 364.883 10.2564C364.159 10.2564 363.507 10.4272 362.925 10.7688C362.335 11.1008 361.872 11.561 361.539 12.1493C361.205 12.728 361.039 13.3827 361.039 14.1133C361.039 14.8439 361.205 15.508 361.539 16.1058C361.872 16.694 362.335 17.1589 362.925 17.5005C363.507 17.8326 364.159 17.9986 364.883 17.9986C365.607 17.9986 366.265 17.8326 366.856 17.5005C367.437 17.1589 367.894 16.694 368.228 16.1058C368.561 15.508 368.728 14.8439 368.728 14.1133Z" fill="black"/>
<path d="M361.124 0.0142318V5.13776L369.886 5.12353V6.5325H359.881V0L361.124 0.0142318Z" fill="black"/>
</svg>
