<svg width="10" height="17" viewBox="0 0 10 17" fill="none" xmlns="http://www.w3.org/2000/svg">
<path fill-rule="evenodd" clip-rule="evenodd" d="M9.99658 12.9251V12.8105C9.935 12.8481 9.89223 12.8746 9.84947 12.902C9.25676 13.2638 8.62214 13.5204 7.91995 13.5879C7.34348 13.6461 6.78926 13.5811 6.28378 13.2706C5.94081 13.0585 5.73041 12.7583 5.68508 12.3606C5.64831 12.0253 5.61495 11.6943 5.61153 11.359C5.60127 9.82723 5.6064 8.29627 5.60298 6.76531C5.60298 6.73024 5.60896 6.69945 5.61666 6.65754H9.45176V4.10452H5.59784V0H3.3014C3.27917 0.131714 3.26377 0.258296 3.24239 0.382313C3.22101 0.508895 3.19449 0.632056 3.16883 0.756073C2.80192 2.50513 1.80038 3.71023 0.0983578 4.30893C0.0188163 4.33801 0 4.37735 0 4.45689C0.00256586 5.14711 0.00256586 5.83733 0.00256586 6.52583C0.00256586 6.56774 0.005987 6.60794 0.00855286 6.65925H1.78413V6.844C1.78413 8.65207 1.78242 10.4601 1.78413 12.2657C1.78413 12.5744 1.80294 12.8823 1.82347 13.1911C1.87735 13.8548 2.11341 14.4372 2.59152 14.9136C2.86008 15.1847 3.15515 15.4148 3.48529 15.5996C4.24307 16.0272 5.06842 16.1957 5.92798 16.2367C7.32467 16.306 8.64266 16.0092 9.89993 15.4063C9.97691 15.3695 10 15.3284 10 15.2472C9.99316 14.4723 9.99658 13.6965 9.99658 12.9251Z" fill="#9A9A9A"/>
</svg>
