<svg width="17" height="14" viewBox="0 0 17 14" fill="none" xmlns="http://www.w3.org/2000/svg">
<path fill-rule="evenodd" clip-rule="evenodd" d="M14.9084 2.16886C15.6244 1.7403 16.1742 1.06168 16.4332 0.253174C15.7631 0.649813 15.021 0.938028 14.2315 1.09342C13.599 0.420306 12.6976 0 11.7007 0C9.78583 0 8.23342 1.55023 8.23342 3.46261C8.23342 3.73395 8.26392 3.99831 8.32307 4.25167C5.44162 4.10747 2.88604 2.72878 1.17657 0.633669C0.878065 1.14515 0.706861 1.73993 0.706861 2.37452C0.706861 3.57581 1.31893 4.63547 2.24917 5.25666C1.68118 5.23868 1.14626 5.08329 0.678755 4.82388C0.678388 4.83819 0.678388 4.8525 0.678388 4.86718C0.678388 6.5451 1.87388 7.94453 3.45972 8.26264C3.16912 8.3419 2.86271 8.38428 2.54621 8.38428C2.32301 8.38428 2.10607 8.36263 1.8939 8.32209C2.33514 9.69767 3.61605 10.699 5.13301 10.7267C3.94615 11.6555 2.45142 12.2092 0.826998 12.2092C0.547229 12.2092 0.271318 12.1927 0 12.1602C1.53423 13.143 3.3563 13.7165 5.31505 13.7165C11.6924 13.7165 15.1801 8.43968 15.1801 3.86366C15.1801 3.71395 15.1768 3.56443 15.17 3.41565C15.8472 2.92801 16.4349 2.31819 16.9 1.62343C16.2778 1.89899 15.6099 2.08502 14.9084 2.16886Z" fill="#9A9A9A"/>
</svg>
