<svg xmlns="http://www.w3.org/2000/svg" viewBox="0 0 50 50"><path d="M39.253 24.76c1.006 1.808 2.146 3.855 1.892 7.08-.298 3.948-2.77 6.51-6.785 7.024-1.69.223-3.076.096-4.067-.393-.666-.325-1.243-.767-1.76-1.26.55 2.05 1.516 3.73 2.46 5.372.224.39.446.775.66 1.163.168.303.168.67 0 .972-.17.303-.482.496-.828.512-1.63.075-3.376.11-5.495.11-1.595 0-3.21-.022-4.85-.04l-1.083-.014c-.32-.005-.618-.16-.804-.42-.185-.263-.234-.595-.133-.898.175-.52.456-.964.703-1.354.08-.127.162-.254.238-.383l.14-.253c.23-.41.46-.822.672-1.27l.216-.474c.428-.93.87-1.888 1.12-2.898l.03-.125c-.935.938-2.134 1.736-3.778 1.82-2.358.1-4.16-.604-4.813-.896-2.51-1.153-3.902-3.39-4.145-6.653-.098-1.346.145-2.904.666-4.278.705-1.885 1.973-3.858 3.092-5.602.57-.87 1.188-1.697 1.785-2.498.31-.408 2.857-3.774 3.25-4.26 1.9-2.345 3.56-5.103 5.166-7.773.39-.647.777-1.292 1.17-1.93.18-.298.502-.48.85-.48.35 0 .67.18.853.477.838 1.364 1.722 2.698 2.655 4.11l1.04 1.574c1.255 1.93 2.706 3.8 4.108 5.61 1.983 2.56 4.034 5.203 5.69 8.176l.087.155z"/></svg>