<svg xmlns="http://www.w3.org/2000/svg" viewBox="0 0 50 50"><path fill="#e50000" d="M42.395 24.468c.115.164.184.363.184.578 0 .43-.272.797-.654.938-1.546 1.096-9.82 7.307-16.016 18.734-.122.303-.378.548-.7.62-.084.02-.168.028-.252.028-.34 0-.656-.156-.832-.453-.047-.07-.084-.146-.112-.228-.804-1.56-6.132-11.42-15.984-18.755-.358-.152-.608-.507-.608-.92v-.023c-.004-.19.045-.38.15-.55.117-.19.294-.332.498-.41 1.28-.893 9.65-7.02 15.965-18.61.1-.448.5-.782.976-.782.197 0 .38.057.534.154.213.12.376.315.455.552.612 1.21 5.937 11.318 16.04 18.802.142.078.266.19.355.324z"/></svg>