<svg stroke-width=".501" stroke-linejoin="bevel" fill-rule="evenodd" xmlns="http://www.w3.org/2000/svg" overflow="visible" width="128" height="128" viewBox="0 0 96 96"><g fill="none" stroke="#000" font-family="Times New Roman" font-size="16"><path d="M49.148 82.763c25.818 0 46.773 2.673 46.773 5.966 0 3.292-20.954 5.965-46.772 5.965-25.818 0-46.773-2.673-46.773-5.966 0-3.294 20.955-5.967 46.773-5.967z" fill="#000" fill-opacity=".298" stroke="none"/><g stroke-linejoin="round"><path d="M58.787 93.378l-1.014-.73-3.57.2c-4.26-.006-8.312-.495-11.735-1.398-3.05-.805-9.762-2.9-12.42-5.574-11.1-11.163-7.525-31.662-4.297-43.38 1.467-5.32 3.61-10.513 6.294-15.225l3.624-5.466-.45-2.228c0-1.065.216-2.08.607-3.004l1.43-2.12.02-.108c.612-1.444 2.042-2.46 3.71-2.46l.898.183 1.058-.214 2.094.424 1.077-.83 2.768-6.4c1.04-2.082 2.17-3.72 3.538-4.304 2.464-1.05 5.246.905 7.418 3.55l1.438 2.252 2.422.136c1.162.154 2.335.4 3.517.74 1.653.478 3.42 1.193 5.14 2.138l1.915 1.208 3.256-.73c3.354-.54 6.72-.603 8.545.507.2.122.37.29.493.487 2.35 3.768-1.054 11.06-4.762 14.857l-.07.06-.4 3.612c-.285 1.722-.6 3.37-.804 5.085-.686 5.763-.67 8.584 2.98 14.2.043.065.08.134.12.227.152.324 1.784 2.554 3.55 5.532l1.097 2.075.28.307c1.665 2.195 3.097 6.085 3.345 6.907 2.746 9.108 2.09 18.14-7.357 25.784-3.455 2.794-9.052 5.06-14.167 5.4-4.982.332-8.71-.087-11.583-1.7z" fill="#a75214" stroke="none"/><g stroke-linecap="round"><path d="M47.243 12.61c1.293-2.99 3.565-9.55 5.762-10.488 3.17-1.35 9.044 6.743 9.085 9.896-.24.746-1.176.9-1.622 1.298-2.32.312-11.85 1.146-13.573.054.106-.214.223-.472.348-.76z" fill="#f68634" stroke-width="1.5" stroke="#a75214" stroke-miterlimit="79.84"/><path d="M82.245 49.66c-3.9-6-3.925-9.206-3.212-15.193.447-3.755 1.253-6.492 1.41-10.51.308-7.883-7.222-13.24-13.648-15.096C49.262 3.796 33.04 21.695 27.198 42.895 23.93 54.75 20.703 74.35 31.112 84.818c2.317 2.33 8.587 4.35 11.74 5.18 13.54 3.57 36.23.37 42.393-12.737 1.278-2.72 5.422-9.42 4.816-12.332-1.365-6.567-7.3-14.054-7.815-15.267z" fill="#f68634" stroke-width="1.5" stroke="#a75214" stroke-miterlimit="79.84"/><path d="M53.145 37.21c4.5 7.05-1.2 11.25.45 28.8.6 6.4 4.227 15.29 3.15 19.05-5.395 4.828-19.197 3.405-23.25-2.85-3.057-4.716-4.96-5.125-6-10.5-1.943-10.044 1.027-28.307 6.3-37.2 2.584-4.357 9.274-6.027 13.35-3.15.18.356 4.715 3.838 6 5.85z" fill="#feb761" stroke="none"/><path d="M85.607 69.695C85.245 80.86 67.095 90.16 64.695 82.06c-1.05-3.3.9-3.9 1.8-6 .412-8.725-17.217-4.746-12.75 7.95 2.85 8.1 7.05 10.2 16.527 9.57 4.813-.318 10.114-2.473 13.323-5.07 8.846-7.155 9.487-15.484 6.864-24.184-.453-1.5-2.786-6.962-4.065-7.36-.078 1.124-.68 9.343-.788 12.73z" fill="#f68634" stroke-width="1.5" stroke="#a75214" stroke-miterlimit="79.84"/><path d="M82.323 51.663c2.05 2.394 9.7 12.96 6.166 15.982-.643.548-1.302.776-1.957.748-.153-1.25-1.044-2.23-2.09-.917-3.807-3.127-5.883-13.828-2.12-15.813z" fill="#f68634" stroke="none"/><path d="M42.195 32.548c-.762-1.67-1.21-3.675-1.01-5.51 1.496-1.395 8.164 2.986 7.77 5.18-2.2 1.055-3.994.762-6.552.762-.072-.142-.14-.286-.208-.432z" fill="#a75214" stroke="none"/><path d="M42.94 13.353c3.435 0 6.224 2.79 6.224 6.223 0 3.434-2.79 6.223-6.223 6.223s-6.222-2.79-6.222-6.224 2.79-6.223 6.223-6.223zM58.614 21.334c3.663 0 6.638 2.975 6.638 6.638s-2.975 6.638-6.638 6.638-6.638-2.975-6.638-6.638 2.975-6.638 6.638-6.638z" fill="#fff" stroke-width="1.5" stroke="#a75214" stroke-miterlimit="79.84"/><path d="M42.945 32.56c.135 1.66-.293 3.49-.15 5.25M39.495 35.41c3.366 4.212 7.95 4.5 12.3 1.5" stroke-width="1.5" stroke="#a75214" stroke-miterlimit="79.84"/><path d="M44.546 28.68c1.014.647 1.628 1.505 1.37 1.91-.26.405-1.296.208-2.31-.44-1.014-.65-1.628-1.507-1.37-1.912.26-.405 1.296-.208 2.31.44z" fill="#f68634" stroke="none"/><path d="M56.59 21.936c1.442 0 2.614 1.172 2.614 2.615 0 1.444-1.172 2.616-2.615 2.616-1.444 0-2.616-1.172-2.616-2.615 0-1.442 1.172-2.614 2.615-2.614zM40.984 13.385c1.393 0 2.524 1.13 2.524 2.524 0 1.392-1.13 2.523-2.524 2.523-1.393 0-2.524-1.13-2.524-2.524 0-1.394 1.13-2.525 2.524-2.525z" fill="#a75214" stroke="none"/><path d="M69.69 13.753c3.604-1.625 12.715-3.68 15.596-1.93 2.43 3.895-3.814 14.22-7.402 14.967-4.494-1.15-6.78-9.628-8.64-12.824.137-.07.287-.142.445-.213z" fill="#f68634" stroke-width="1.5" stroke="#a75214" stroke-miterlimit="79.84"/><path d="M69.945 12.01c-1.122 2.057 1.654 3.25 3.3 3 .724 2.516 6.01 8.385 6 8.85-1.326-.06-1.91 2.74-.75 3.15v1.05c-.617.293-2.01 1.572-3 1.05-2.94-1.545-12.612-14.347-8.25-17.55.83-.264 2.107-.135 2.7.45zM49.845 12.46c.783-1.264 1.527-2.865 1.5-4.35 2.023.025 3.575-2.184 5.5-1.9.628 1.22 2.63 2.213 2.375 3.55-.948.675-2.197.803-3.075 1.5-1.91.397-3.77 1.08-5.4 1.576l-.9-.375z" fill="#f68634" stroke="none"/><path d="M75.738 21.593c-1.28-1.19-3.078-3.69-2.64-5.155.555-1.778 7.837-2.565 8.586-1.312.842 1.41-3.133 8.03-5.475 6.862-.145-.105-.304-.24-.472-.395zM51.018 8.623c.56-1.627 1.015-3.403 2.224-4.594.866-.234 1.444.658 1.633 1.387.15.582.565 1.81.326 2.367-.668 1.57-4.063 1.197-4.516 1.742.12-.293.23-.595.334-.903z" fill="#feb761" stroke="none"/><path d="M77.965 41.544c-1.87 2.465-8.54 2.397-8.24 4.608l.025.388c2.044 2.846 7.96.414 9.872-1.38-.185-1.384-.815-2.7-1.416-3.81-.01.01-.23.185-.24.194zM81.095 47.807c-1.346 2.97-8.998 4.85-8.173 7.05l.117.392c2.765 2.445 8.63-1.175 10.175-3.464-.513-1.38-2.114-3.993-2.12-3.98zM85.04 54.916c-1.172 2.776-8.113 5.008-7.323 6.936l.114.347c2.565 2.013 7.784-1.463 9.152-3.64-.49-1.21-.872-2.718-1.69-3.563-.006.01-.243-.094-.25-.08z" fill="#a75214" stroke="none"/><path d="M50.56 34.026l11.1 3.9M49.284 35.75l9.15 6.076M60.686 18.76l2.292-3.265M63.13 19.416l1.434-2.448M49.66 14l2.774-2.4" stroke-width="1.125" stroke="#a75214" stroke-miterlimit="79.84"/></g></g><path d="M2.866 88.54c0-.37.14-.73.413-1.082.013-.163.043-.33.09-.503L7.746 70.84c.083-.303.25-.58.465-.81.5-2.265 9.426-4.074 20.35-4.074 10.92 0 19.844 1.807 20.35 4.072.23.23.412.508.513.813l5.25 16.115c.1.3.145.59.144.855.123.24.187.483.187.73 0 3.353-11.68 6.075-26.07 6.075-14.388 0-26.068-2.722-26.068-6.075z" stroke-width="2.25" stroke-linejoin="round" stroke-linecap="round" fill="#c5023c" stroke="#980749" stroke-miterlimit="79.84"/><path d="M28.336 67.76c8.862 0 16.055 1.4 16.055 3.127 0 1.726-7.192 3.127-16.054 3.127-8.862 0-16.055-1.4-16.055-3.127 0-1.726 7.194-3.127 16.056-3.127z" fill="#6d003b" stroke="none"/><path d="M8.644 71.416c4.307 5.912 35.03 6.776 39.682-.15" stroke-linejoin="round" stroke-linecap="round" stroke="#e05f7d" stroke-width="1.5" stroke-miterlimit="79.84"/><path d="M38.184 28.4l-7.575-4.724M28.51 27.5l7.95 3.3" stroke-width="1.125" stroke="#a75214" stroke-linecap="round" stroke-linejoin="round" stroke-miterlimit="79.84"/><path d="M21.924 28.12c-3.08-1.092-6.872-1.47-8.732-4.55-2.564-4.242 3.613-7.29 5.57-3.432-1.22-3.21 2.775-4.708 4.422-3.887 4.196 2.095.44 8.837-.56 12.136-.226-.095-.46-.183-.7-.267zM8.638 11.284C6.49 10.71 3.884 9.864 2.556 8.44c-2.04-2.185.846-6.767 4.654-2.203-1.23-3.492 3.397-6.546 4.775-2.45.917 2.728-2.337 5.634-2.02 7.838-.408-.103-.857-.215-1.327-.34zM29.833 11.81c-.986-.707-2.596-1.474-3.465-2.057-4.85-3.26 1.03-8.87 3.524-3.83.687-2.28 3.92-3.238 5.222-.845.022.04.296 1.057.137 1.55-.758 2.366-3.733 4.362-4.855 5.656-.143-.152-.336-.31-.562-.475z" fill="#f02b66" stroke="none"/></g></svg>