<svg stroke-width=".501" stroke-linejoin="bevel" fill-rule="evenodd" xmlns="http://www.w3.org/2000/svg" overflow="visible" width="128" height="128" viewBox="0 0 96 96"><g fill="none" stroke="#000" font-family="Times New Roman" font-size="16"><path d="M3.817.234v96h96v-96h-96z" stroke="none"/><path d="M105.06-3.58V97.293H4.184V-3.58H105.06z" stroke="none"/><g stroke-linecap="round"><path d="M45.254 83.142c21.763 0 39.426 2.56 39.426 5.713s-17.663 5.713-39.426 5.713-39.426-2.56-39.426-5.713 17.663-5.713 39.426-5.713z" fill="#000" fill-opacity=".298" stroke="none"/><path d="M67.427 47.35c3.748 6.273 17.148 2.147 21.693 13.707.813 2.073 3.32 6.05.132 6.876-2.28.59-5.006-3.535-7.163-4.432-4.015-1.665-8.676 1.895-11.226-.012-3.527-2.636-7.14-13.657-3.548-16.333l.11.195zM55.474 8.153c1.26-3.31 7.723-8.196 9.518-7.444 2.91 3.25 1.312 14.323-1.755 16.568-.057.043-.096.114-.144.167-3.814.19-9.442-4.505-7.62-9.292z" fill="#000" stroke="none"/><path d="M47.187 90.993c25.295-5.403 33.37-27.55 27.105-53.478-3.638-15.06-14.32-35.066-31.245-33.18-3.534.394-9.788 2.34-11.67 7.807-5.427 11.36-3.363 20.6-7.53 32.4-3.68 10.423-14.197 11.77-14.68 23.81C8.634 81.59 12.93 86.7 24.976 90.407c6.01 1.85 15.977 1.92 22.21.587z" fill="#000" stroke="none"/><path d="M28.478 19.918c-.388-4.944-.348-9.86.41-14.73 1.25-8.02 6.06-3.583 8.914-.82 7.48 7.244-3.188 14.907-9.324 15.55zM14.808 56.7C5.35 63.476 1.148 82.09 16.35 90.523c6.275 3.482 18.146 3.916 16.395-3.513-1.147-4.866-11.68-5.33-16.833-9.086-1.457-1.062-3.288-2.06-3.903-3.748-2.967-8.12 1.955-13.168 4.06-18.107-.12.024-1.195.582-1.262.63zM57.39 73.095c.127 5.118-1.572 14.806-1.27 20.6-7.8 4.316-12.17-14.55-11.557-19.83.602-5.162 11.716-7.335 12.65-2.657.102.52.157 1.156.176 1.887z" fill="#000" stroke="none"/><path d="M31.694 16.143c-.016-2.016-.115-9.676 1.497-10.905 1.962-1.496 5.828 4.418 5.11 6.384-.43 1.17-5.328 4.492-6.606 4.52zM60.528 7.522c.48-1.333 1.356-3.33 2.852-3.756.74 1.265.884 6.847-.725 7.028-.72-.52-1.827-2.463-2.127-3.272z" fill="#9c9494" stroke="none"/><path d="M26.32 30.377c.114.75.282 1.54.824 2.09 6.56 6.687 20.253.553 23.62-5.085.174-.295 5.888-.435 6.233.158 3.01 5.165 12.67 10.076 16.404 3.468 4.33-7.66-5.25-25.377-20.668-27.268C27.186.606 25.492 28.954 26.32 30.377z" fill="#dcd5c6" stroke-width="1.5" stroke="#ab9e89" stroke-linejoin="round" stroke-miterlimit="79.84"/><path d="M54.213 30.85c-.117 1.776-.117 2.643-.984 3.51-2.444.844-10.5 1.402-8.512 7.092" stroke-width="1.5" stroke="#504e4e" stroke-linejoin="round" stroke-miterlimit="79.84"/><path d="M49.956 5.79c7.917 0 14.342 3.318 14.342 7.407 0 4.09-6.425 7.408-14.342 7.408-7.917 0-14.342-3.32-14.342-7.408 0-4.09 6.425-7.408 14.342-7.408z" fill="#f6f1e7" stroke="none"/><path d="M61.898 15.055c3.74 0 6.778 3.037 6.778 6.778 0 3.74-3.037 6.778-6.778 6.778-3.74 0-6.778-3.036-6.778-6.777 0-3.74 3.037-6.778 6.778-6.778z" stroke-width="1.5" stroke="#ab9e89" stroke-linejoin="round" fill="#000" stroke-miterlimit="79.84"/><path d="M49.043 27.94c.18 1.115.47 1.494 1.136 2.264 2.66 3.083 7.604 1.055 7.626-2.382.014-1.963-7.16-1.36-7.997-.74l-.767.857z" fill="#982c61" stroke="none"/><g stroke-linejoin="miter" transform="matrix(1 0 0 -1 0 96)"><path d="M43.978 55.22c0-3.306 2.76-5.99 6.16-5.99h7.36c3.4 0 6.16 2.684 6.16 5.99 0 3.305-2.76 5.988-6.16 5.988h-7.36c-3.4 0-6.16-2.683-6.16-5.988z" stroke-width="1.5" stroke="#504e4e" fill="#c5023d" stroke-miterlimit="79.84"/><clipPath id="a"><path d="M44.728 55.22c0 2.87 2.404 5.238 5.41 5.238h7.36c3.006 0 5.41-2.368 5.41-5.24 0-2.87-2.405-5.238-5.41-5.238h-7.36c-3.005 0-5.41 2.368-5.41 5.24z"/></clipPath><g clip-path="url(#a)" stroke="none" stroke-width=".75" fill="#dcd5c6" stroke-miterlimit="79.84"><path d="M45.033 59.04v-1.185c0-.78.636-1.417 1.417-1.417h.317c.78 0 1.417.636 1.417 1.417v1.185c0 .78-.636 1.417-1.417 1.417h-.317c-.78 0-1.417-.636-1.417-1.417zM48.58 59.75v-1.186c0-.78.635-1.417 1.416-1.417h.317c.78 0 1.417.636 1.417 1.417v1.185c0 .78-.636 1.416-1.417 1.416h-.317c-.78 0-1.417-.636-1.417-1.417zM52.362 59.907v-1.185c0-.78.636-1.417 1.417-1.417h.316c.78 0 1.417.636 1.417 1.417v1.185c0 .78-.636 1.417-1.417 1.417h-.317c-.782 0-1.418-.636-1.418-1.417zM56.145 59.75v-1.186c0-.78.636-1.417 1.417-1.417h.317c.78 0 1.416.636 1.416 1.417v1.185c0 .78-.636 1.416-1.417 1.416h-.318c-.78 0-1.417-.636-1.417-1.417zM59.69 59.197v-1.185c0-.78.637-1.417 1.418-1.417h.317c.78 0 1.417.636 1.417 1.417v1.185c0 .78-.636 1.417-1.417 1.417h-.317c-.78 0-1.417-.636-1.417-1.417z"/><g><path d="M45.033 51.392v1.185c0 .78.636 1.417 1.417 1.417h.317c.78 0 1.417-.636 1.417-1.417v-1.185c0-.78-.636-1.417-1.417-1.417h-.317c-.78 0-1.417.636-1.417 1.417zM48.58 50.683v1.185c0 .78.635 1.417 1.416 1.417h.317c.78 0 1.417-.636 1.417-1.417v-1.185c0-.78-.636-1.417-1.417-1.417h-.317c-.78 0-1.417.636-1.417 1.417zM52.362 50.525v1.185c0 .78.636 1.417 1.417 1.417h.316c.78 0 1.417-.636 1.417-1.417v-1.185c0-.78-.636-1.417-1.417-1.417h-.317c-.782 0-1.418.636-1.418 1.417zM56.145 50.683v1.185c0 .78.636 1.417 1.417 1.417h.317c.78 0 1.416-.636 1.416-1.417v-1.185c0-.78-.636-1.417-1.417-1.417h-.318c-.78 0-1.417.636-1.417 1.417zM59.69 51.235v1.185c0 .78.637 1.417 1.418 1.417h.317c.78 0 1.417-.636 1.417-1.417v-1.185c0-.78-.636-1.417-1.417-1.417h-.317c-.78 0-1.417.636-1.417 1.417z"/></g></g></g><path d="M43.38 15.213c3.87 0 7.013 3.142 7.013 7.014 0 3.872-3.142 7.014-7.014 7.014-3.873 0-7.015-3.14-7.015-7.013 0-3.872 3.142-7.014 7.014-7.014z" stroke-linejoin="round" stroke-width="1.5" stroke="#ab9e89" fill="#000" stroke-miterlimit="79.84"/><path d="M43.31 17.187c2.35 0 4.257 1.76 4.257 3.926 0 2.167-1.908 3.926-4.256 3.926-2.347 0-4.255-1.76-4.255-3.927s1.908-3.926 4.256-3.926z" stroke-linejoin="round" stroke="none" stroke-width="1.5" fill="#ffdd58" stroke-miterlimit="79.84"/><path d="M42.552 19.054c.824 0 1.495.67 1.495 1.495 0 .823-.67 1.494-1.495 1.494-.824 0-1.495-.67-1.495-1.495 0-.825.67-1.496 1.495-1.496z" fill="#000" stroke="none"/><path d="M61.52 17.187c2.35 0 4.256 1.69 4.256 3.77s-1.907 3.768-4.256 3.768c-2.35 0-4.256-1.69-4.256-3.77s1.907-3.768 4.256-3.768z" stroke-linejoin="round" stroke="none" stroke-width="1.5" fill="#ffdd58" stroke-miterlimit="79.84"/><path d="M60.76 19.054c.825 0 1.496.67 1.496 1.495 0 .823-.67 1.494-1.495 1.494-.823 0-1.494-.67-1.494-1.495 0-.825.67-1.496 1.495-1.496z" fill="#000" stroke="none"/><path d="M27.46 30.42c3.522 6.517 16.613 2.586 20.804-1.498M72.767 29.82c-2.31 5.276-10.89 2.093-13.636-1.213M59.14 28.45c4.14 3.166 11.315-.744 9.692-5.99M35.59 23.6c.328 6.22 9.442 9.72 12.96 4.177" stroke-width="1.5" stroke="#f6f1e7" stroke-linejoin="round" stroke-miterlimit="79.84"/><g stroke-linejoin="round" stroke="#999" stroke-width="1.5" fill="none" stroke-miterlimit="79.84"><path d="M31.995 91.36c1.892-1.417 1.982-2.392 2.2-3.61 1.104-6.147-6.55-5.09-14.35-7.64-9.31-3.042-9.75-7.95-8.1-13.65M42.645 72.46c.476 6.293 2.68 12.483 5.7 18M57.195 70.06c-.49 5.895-.458 11.77-.45 17.7"/></g></g></g></svg>