<svg stroke-width=".501" stroke-linejoin="bevel" fill-rule="evenodd" xmlns="http://www.w3.org/2000/svg" overflow="visible" width="128" height="128" viewBox="0 0 96 96"><g fill="none" stroke="#000" font-family="Times New Roman" font-size="16"><path d="M.067-.066v96h96v-96h-96z" stroke="none"/><g stroke-linecap="round"><path d="M53.924 85.155c21.49 0 38.93 2.396 38.93 5.346s-17.44 5.347-38.93 5.347-38.93-2.396-38.93-5.346 17.44-5.345 38.93-5.345z" fill="#000" fill-opacity=".298" stroke="none"/><path d="M30.146-21.21zM51.886 9.786c-6.642-.727-13.542-3.44-21.93-.593-.136-2.284-3.43-11.418-5.79-8.236-10.262 20.486-11.957 48.786-9.802 63.988 1.81 12.752 6.308 30.085 12.337 28.47 2.35-.63 1.902-5.415 1.336-9.64 3.052.513 8.198.743 15.326.594 1.32 4.744.38 7.346 1.8 8.748.91-.097 2.082.245 2.836-.297 2.554-1.838 3.963-3.51 4.39-7.716 4.265 6.086 11.227 7.942 16.606 7.717 17.76-.74 28.14-19.72 14.35-37.66C66.556 33.32 61.143 3.39 58.578.46c-2.103-3.106-6.314 6.426-6.694 9.326z" fill="#000" stroke="none"/><g stroke="none" stroke-width=".75" stroke-miterlimit="79.84"><path d="M50.117 19.947c3.923 0 7.108 3.185 7.108 7.108 0 3.923-3.185 7.108-7.108 7.108-3.923 0-7.108-3.185-7.108-7.108 0-3.923 3.184-7.108 7.107-7.108z" fill="#ffdd58"/><path d="M39.402 22.465l2.045 5.413 15.85-5.986-2.046-5.414-15.848 5.987z" fill="#000"/></g><g stroke="none" stroke-width=".75" stroke-miterlimit="79.84"><path d="M29.92 19.947c-3.922 0-7.107 3.185-7.107 7.108 0 3.923 3.185 7.108 7.108 7.108 3.924 0 7.11-3.185 7.11-7.108 0-3.923-3.186-7.108-7.11-7.108z" fill="#ffdd58"/><path d="M40.637 22.465l-2.045 5.413-15.85-5.986 2.046-5.414 15.85 5.987z" fill="#000"/></g><g stroke="none" stroke-width=".75" stroke-miterlimit="79.84"><path d="M32.735 43.227l2.427 3.374 2.427-3.373-2.428-3.374-2.427 3.374z" fill="#dcd5c6"/><path d="M35.23 38.105c2.66 0 4.818 1.12 4.818 2.498 0 1.38-2.16 2.498-4.82 2.498s-4.818-1.118-4.818-2.497c0-1.38 2.16-2.498 4.82-2.498z" fill="#000"/></g><g stroke="none" stroke-width=".75" stroke-miterlimit="79.84"><path d="M42.815 43.286l2.427 3.374 2.427-3.374-2.428-3.374-2.427 3.374z" fill="#dcd5c6"/><path d="M45.31 38.165c2.66 0 4.818 1.12 4.818 2.497 0 1.378-2.16 2.497-4.82 2.497s-4.818-1.12-4.818-2.498c0-1.378 2.16-2.497 4.82-2.497z" fill="#000"/></g><g stroke-linejoin="round" stroke="#504e4e" stroke-width="1.5" fill="none" stroke-miterlimit="79.84"><path d="M40.168 39.587c-.084 1.264 1.164 2.396 2.44 3.13 6.782 3.898 6.456-7.924 12.83-4.408"/><path d="M40.22 39.588c.085 1.265-1.157 2.395-2.432 3.128-6.782 3.9-6.464-7.92-12.837-4.405"/></g><path d="M36.122 35.758c.124 1.056.384 1.423.98 2.17 2.382 3.002 7.11 1.288 7.262-1.942.088-1.846-6.68-1.554-7.49-1.005l-.752.778z" fill="#b4055a" stroke="none"/><path d="M30.263 25.097c1.25 0 2.264 1.015 2.264 2.264 0 1.25-1.015 2.265-2.264 2.265-1.25 0-2.264-1.015-2.264-2.264 0-1.248 1.014-2.263 2.263-2.263zM49.386 25.17c1.208 0 2.19.983 2.19 2.19 0 1.21-.982 2.19-2.19 2.19s-2.19-.98-2.19-2.19c0-1.207.982-2.19 2.19-2.19z" fill="#000" stroke="none"/><g stroke-linejoin="round" stroke="#504e4e" stroke-width="1.5" fill="none" stroke-miterlimit="79.84"><path d="M36.38 23.01l-.817-4.67M33.265 21.776l-.964-2.9"/></g><g stroke-linejoin="round" stroke="#504e4e" stroke-width="1.5" fill="none" stroke-miterlimit="79.84"><path d="M43.82 23.01l.817-4.67M46.935 21.776l.964-2.9"/></g><path d="M55.487 10.084c-.043-1.232 1.295-6.647 2.56-6.702.312-.013.454.212.616.45 2.577 3.798 3.6 12.108-3.176 6.252zM26.914 10.196c.195-1.217-.458-6.757-1.706-6.97-.308-.05-.477.155-.667.372-3.03 3.446-5.08 11.564 2.374 6.598z" fill="#504e4e" stroke="none"/><g stroke="#b2b2b2" stroke-linejoin="round" stroke-width="1.5" fill="none" stroke-miterlimit="79.84"><path d="M53.39 85.556c-6.83-8.114-5.523-18.467-2.075-23.725 5.93-9.044 17.497-8.6 22.835-3.854 8.748 6.82 4.152 22.983-8.304 20.314-2.224-.74-2.372-2.155-2.372-2.817 0-3.855 3.895-1.706 5.93-2.966 5.144-3.18 2.152-10.238-3.26-10.676-13.66-1.104-14.474 25.623 4.002 24.615 8.156-.445 13.197-6.672 14.68-13.493M25.515 75.176c.856 2.832 1.63 6.228 2.224 8.304M42.27 74.583c.89 2.817.94 6.178 1.186 9.193"/></g></g></g></svg>