<svg stroke-width=".501" stroke-linejoin="bevel" fill-rule="evenodd" xmlns="http://www.w3.org/2000/svg" overflow="visible" width="128" height="128" viewBox="0 0 96 96"><g stroke-linecap="round" transform="matrix(1 0 0 -1 0 96)" fill="none" stroke="#000" font-family="Times New Roman" font-size="16"><path d="M.367-.082v96h96V26.432c-.262.256-.648.375-1.028.28-.2-.05-.402-.097-.603-.138-.588-.146-.947-.745-.8-1.333.145-.588.744-.947 1.332-.8.198.053.397.11.597.16.195.048.365.148.5.28V-.082h-96z" stroke="none"/><clipPath id="a"><path d="M.367-.082v96h96V26.432c-.262.256-.648.375-1.028.28-.2-.05-.402-.097-.603-.138-.588-.146-.947-.745-.8-1.333.145-.588.744-.947 1.332-.8.198.053.397.11.597.16.195.048.365.148.5.28V-.082h-96z"/></clipPath><g clip-path="url(#a)"><path d="M48.157 8.608c16.053 0 29.024-1.888 28.953-4.214C77.04 2.068 63.952.18 47.9.18c-16.054 0-29.025 1.888-28.954 4.214.07 2.326 13.158 4.214 29.21 4.214z" fill="#000" fill-opacity=".298" stroke="none"/><path d="M63.698 3.908c-1.1-1.65-3.656-1.8-4.833-1.05-1.373.875-.044 4.848 1.3 8.1 2.106 5.1 2.496 22.65-15.255 21-2.11-.3-4.368-.6-6.66-1.95-3.015-7.073-.592-15.32 2.317-22.2.59-1.398 1.99-3.6.457-4.65-2.165-.506-3.982.907-5.016 2.7.438-1.002-.165-1.69-.08-2.55-3.565-5.255-15.625 12.906-19.716 22.2-10.235 23.25-.906 58.633 27.49 62.25 23.55 3 41.76-11.416 43.35-31.2.543-6.75-1.74-18-3.063-22.05-3.84-11.74-6.603-19.242-15.62-29.85-2.838-3.34-5.42-1.727-4.672-.75z" fill="#000" stroke="none"/><path d="M75.064 75.87c5.884.335 9.887 3.165 14.276 3.952 2.318-2.823-.352-20.334-7.908-16.295-3.175 1.698-7.965 7.44-6.65 11.192l.282 1.15zM16.28 25.888C6.36 41.234 3.886 68.786 14.013 85.71c2.293 3.833 5.957 8.348 10.198 9.698 1.82.578 3.267-1.077 3.23-2.25-.087-2.85-1.664-4.248-6.494-11.2-5.65-8.134-9.43-23.75-5.694-33.95 1.81-4.94 1.424-13.344 2.437-15.868.717-1.782-.84-4.653-1.392-6.282l-.02.03z" fill="#000" stroke="none"/><path d="M36.448 5.558c-6.193 9.027-5.5 21.15 1.198 24.3M43.334 66.325c-2.606 6.255-1.89 15.868.296 14.978 3.657-1.49 7.576-4.237 9.745-5.64 5.45 4.98 19.44 4.652 25.2-.12" stroke="#616161" stroke-width="1.5" stroke-linejoin="round" stroke-miterlimit="79.84"/><path d="M76.308 63.047c3.233 1.34 6.17 1.63 6.55.647.383-.983-1.93-2.87-5.164-4.21-3.233-1.342-6.17-1.63-6.55-.648-.383.983 1.93 2.87 5.164 4.21zM58.94 63.044c-3.15 1.34-6.07 1.632-6.512.648-.443-.983 1.755-2.87 4.905-4.212 3.15-1.34 6.068-1.632 6.51-.648.444.983-1.754 2.87-4.904 4.212z" fill="#ffb300" stroke="none"/><path d="M64.908 55.7c.073-.853.276-1.145.74-1.744 1.852-2.39 5.72-.935 5.924 1.68.118 1.493-5.364 1.158-6.035.703l-.63-.64zM67.862 50.442c-4.9.366-7.734-2.38-8.59-5.847-.893-3.62 2.26-4.95 4.562-2.84 2.415 2.212 1.59 7.53 4.028 8.687z" fill="#a01c4f" stroke="none"/><path d="M67.064 50.47c-.015-.64-.077-3.307.23-3.82.726-1.207 1.885 2.788 1.915 3.577-.62.197-1.596.294-2.146.242zM62.416 49.152c-.308-.334-.03-3.4.647-3.488.79-.105 1.776 3.087 1.78 4.516-.81-.184-2.01-.806-2.427-1.028z" fill="#ffefbc" stroke="none"/><path d="M77.176 63.424c1.136 0 2.027-.995 1.99-2.22-.038-1.227-.99-2.222-2.126-2.222s-2.027.995-1.99 2.22c.038 1.227.99 2.222 2.126 2.222zM58.11 63.423c1.135 0 2.026-.995 1.988-2.22-.037-1.227-.99-2.222-2.125-2.222-1.136 0-2.027.996-1.99 2.222.038 1.226.99 2.22 2.126 2.22z" fill="#000" stroke="none"/><path d="M75.032 55.785l9.277.1M74.896 53.523l9.226-1.556M60.526 55.788l-9.25.755M60.524 53.522l-9.302-.9M63.816 64.635l-.33 5.35M61.555 66.034l-.712 3.62M72.108 64.635l.658 5.35M74.456 66.034l.934 3.62" stroke="#616161" stroke-width="1.125" stroke-linejoin="round" stroke-miterlimit="79.84"/><path d="M43.67 81.26c-.028-3.455 1.307-8.395 5.588-11.03 1.208-.74-4.268-4.753-5.81-4.196-1.884.684-1.625 12.173-1.436 14.813.057-.026 1.66.46 1.66.413zM87.76 76.987c-1.24-2.842-3.124-4.147-5.544-5.428.958-1.333 2.146-3.562 2.682-5.173 3.305 2.33 3.652 11.83 2.863 10.6zM62.985 3.852c.396-.554 8.86 17.196 9.328 24.19.306 4.597 4.307 3.915 2.848-.433-2.672-7.956-10.7-24.083-11.41-24.192-.105.29-.765.124-.765.434z" fill="#616161" stroke="none"/><path d="M15.126 71.274c.04-.977-.367-3.442.87-3.844 1.254-.407 1.744 2.15 3.118 1.98 1.43-2.91-3.22-12.99-5.962-12.59-3.59.523-1.714 11.86 1.974 14.454z" fill="#000" stroke="none"/></g></g></svg>