<svg stroke-width=".501" stroke-linejoin="bevel" fill-rule="evenodd" xmlns="http://www.w3.org/2000/svg" overflow="visible" width="128" height="128" viewBox="0 0 96 96"><g fill="none" stroke="#000" font-family="Times New Roman" font-size="16"><path d="M48.312 84.9c19.745 0 35.77 2.506 35.77 5.592s-16.025 5.59-35.77 5.59c-19.745 0-35.77-2.504-35.77-5.59s16.025-5.59 35.77-5.59z" fill="#000" fill-opacity=".298" stroke="none"/><path d="M10.867 64.292c0-8.402 3.823-16.37 10.07-22.41h54.87c6.25 6.04 10.073 14.008 10.073 22.41 0 17.613-16.804 30.49-37.507 30.49-20.702 0-37.506-12.877-37.506-30.49z" stroke-width="2.25" fill="#6398e9" stroke="#3e6cb4" stroke-linejoin="round" stroke-linecap="round" stroke-miterlimit="79.84"/><path d="M75.46 41.83c-5.902-10.19-7.062-20.192-10.29-30.322.26-2.23 1.343-11.117-2.177-11.35-2.012-.133-5.92 5.08-7.31 6.685-1.514-.997-5.26-1.118-7.927-1.102-2.448.016-5.748.106-7.264 1.103-1.39-1.605-5.296-6.818-7.308-6.685-3.52.233-2.436 9.12-2.177 11.35-3.228 10.13-5.138 20.132-11.04 30.32H75.46z" fill="#000" stroke="none"/><path d="M48.55 38.857c16.126 0 29.216 6.66 29.216 20.18 0 13.522-13.09 24.495-29.217 24.495-16.128 0-29.218-10.973-29.218-24.494 0-13.52 13.09-20.18 29.217-20.18z" fill="#7cc8ff" stroke="none"/><path d="M48.076 39.013c14.676 0 26.588-.878 26.588 2.8 0 3.676-11.912 6.662-26.588 6.662s-26.588-2.986-26.588-6.663 11.912-2.8 26.588-2.8z" fill="#7cc8ff" stroke="none"/><path d="M48.073 38.25c17.332 0 31.4 1.345 31.4 3 0 1.657-14.068 3-31.4 3s-31.4-1.343-31.4-3c0-1.655 14.068-3 31.4-3z" fill="#3e6cb4" stroke="none"/><path d="M40.217 19.608c3.17.894 5.308 1.12 4.77 3.615-.535 2.497-3.544 3.8-6.716 2.908-3.17-.894-5.305-3.646-4.77-6.142.537-2.498 3.547-1.274 6.717-.38zM56.203 19.607c-3.17.894-5.308 1.12-4.77 3.615.535 2.497 3.544 3.8 6.716 2.908 3.17-.895 5.305-3.647 4.77-6.143-.537-2.498-3.547-1.274-6.717-.38z" fill="#f5ad05" stroke="none"/><path d="M44.647 27.19c.106.913.332 1.23.847 1.878 2.06 2.593 6.145 1.11 6.278-1.68.076-1.597-5.773-1.345-6.474-.87l-.65.672z" fill="#7c2c4b" stroke="none"/><path d="M39.87 22.58c1.203 0 2.18.978 2.18 2.18 0 1.204-.977 2.182-2.18 2.182-1.203 0-2.18-.978-2.18-2.18 0-1.204.977-2.182 2.18-2.182zM56.387 22.58c1.203 0 2.18.978 2.18 2.18 0 1.204-.977 2.182-2.18 2.182-1.203 0-2.18-.978-2.18-2.18 0-1.204.977-2.182 2.18-2.182z" fill="#000" stroke="none"/><path d="M41.044 16.806c-.166-.75-.316-1.686-.525-2.325M43.594 17.555c-.138-1.01-.643-2.585-.9-3.6M54.487 16.806c.166-.75.316-1.686.525-2.325M51.937 17.555c.138-1.01.643-2.585.9-3.6M35.036 31.322c2.174-.766 4.538-1.587 6.75-2.19M38.562 33.362c1.17-.962 2.474-1.738 3.805-2.465M61.808 31.183c-2.183-.737-4.558-1.528-6.778-2.1M59.21 33.57c-1.182-.947-2.498-1.705-3.837-2.415" stroke="#818181" stroke-width="1.125" stroke-linecap="round" stroke-linejoin="round" stroke-miterlimit="79.84"/><path d="M52.26 32.807c.2-.003.434.062.69-.034 1.544-.578 2.162-3.888 4.036-4.512.528-.174 1.37.12 1.695.577 1.868 2.624-1.33 4.715-3.748 4.785-.998.03-2.097-.46-3.018-.663.1-.118.217-.148.345-.153z" fill="#000" stroke="none"/><path d="M50.384 32.432c.202-.003.435.062.69-.034 1.545-.578 2.163-3.888 4.037-4.512.53-.175 1.37.118 1.696.576 1.867 2.624-1.33 4.715-3.75 4.785-.997.03-2.096-.46-3.017-.663.1-.117.216-.147.344-.152z" fill="#c53275" stroke="none"/><path d="M32.93 16.54c-.27-.954-1.22-7.417.75-7.35.873.03 1.474 1.123 1.95 1.8 3.77 5.377-1.606 6.608-2.7 5.55zM63.016 16.54c.27-.954 1.22-7.417-.75-7.35-.873.03-1.474 1.123-1.95 1.8-3.77 5.377 1.606 6.608 2.7 5.55z" fill="#818181" stroke="none"/><g stroke-linejoin="round" stroke-linecap="round"><path d="M43.335 53.874c1.687 0 3.057 1.37 3.057 3.057 0 1.688-1.37 3.058-3.057 3.058-1.687 0-3.057-1.37-3.057-3.057 0-1.686 1.37-3.056 3.057-3.056z" stroke-width="1.5" fill="#fff" stroke="#a0740b" stroke-miterlimit="79.84"/><path d="M48.704 53.874c1.687 0 3.057 1.37 3.057 3.057 0 1.688-1.37 3.058-3.056 3.058-1.687 0-3.057-1.37-3.057-3.057 0-1.686 1.37-3.056 3.057-3.056z" stroke-width="1.5" fill="#fff" stroke="#a0740b" stroke-miterlimit="79.84"/><path d="M47.038 72.792c-3.777-1.572-8.816-6.018-7.644-10.54 2.232-8.61 11.926-7.198 14.673-.978 2.775 6.284-3.52 8.23-3.696 11.896-1.208.146-1.156.126-2.35 0-.313-.11-.64-.237-.982-.378z" stroke-width="1.5" stroke="#a0740b" fill="#f5ad05" stroke-miterlimit="79.84"/><path d="M48.173 73.29l-.04.375c3.187 5.192 10.57 6.37 15.48 3.15-1.77.183-4.57-1.528-5.532-2.864 2.978.808 5.785-1.756 5.628-4.834-3.514.948-6.687-.87-9.014-.532-3.683.534-6.37 4.188-6.47 4.183l-.05.523zM39.428 65.68c-1.835 1.346.08 4.37-2.35 4.704.727-1.966-2.505-4.876.972-6.585.694-.342.7-.26 1.41-.27-.178.66-.01 1.358.337 1.927-.137.067-.26.14-.37.222zM54.92 64.54c1.488-.11 1.054 2.43 3.46 2.822-.84-1.278-.044-2.24-.64-3.497-.394-.83-2.614-2.23-3.326-2.185.134.767.588 1.597.236 2.42.097.142.186.288.27.44z" fill="#a0740b" stroke="none"/><path d="M42.456 52.76c.63 0 1.142.513 1.142 1.143s-.512 1.142-1.142 1.142c-.63 0-1.142-.512-1.142-1.142 0-.63.512-1.142 1.142-1.142zM49.37 52.734c.63 0 1.14.512 1.14 1.142 0 .63-.51 1.142-1.14 1.142-.63 0-1.143-.512-1.143-1.142 0-.63.512-1.142 1.142-1.142z" fill="#000" stroke="none"/><path d="M44.327 58.9c-2.802 1.828-1.754 6.467.774 7.895 3.32 1.878 5.556-2.09 5.35-4.722-.182-2.273-2.193-4.685-5.24-3.606-.328.117-.622.264-.883.434z" fill="#ffdd58" stroke="none"/></g><path d="M61.672 53.476c.913 0 1.655.742 1.655 1.655 0 .914-.742 1.656-1.655 1.656s-1.655-.742-1.655-1.655c0-.912.742-1.654 1.655-1.654zM66.322 46.727c1.327 0 2.405 1.078 2.405 2.405 0 1.327-1.078 2.405-2.405 2.405-1.327 0-2.405-1.078-2.405-2.405 0-1.327 1.078-2.405 2.405-2.405z" fill="#c2e5ff" stroke="none"/><path d="M15.506 75.418c9.692 21.225 54.726 23.775 65.7-.3" stroke-width="3" stroke="#7cc8ff" stroke-linecap="round" stroke-linejoin="round" stroke-miterlimit="79.84"/></g></svg>