<svg stroke-width=".501" stroke-linejoin="bevel" fill-rule="evenodd" xmlns="http://www.w3.org/2000/svg" overflow="visible" width="128" height="128" viewBox="0 0 96 96"><g fill="none" stroke="#000" font-family="Times New Roman" font-size="16"><path d="M48.39 84.54c22.26 0 40.324 2.62 40.324 5.847 0 3.227-18.065 5.848-40.323 5.848-22.257 0-40.322-2.62-40.322-5.848 0-3.227 18.065-5.848 40.323-5.848z" fill="#000" fill-opacity=".298" stroke="none"/><g stroke-linejoin="round" stroke="none" stroke-width=".75" stroke-miterlimit="79.84"><path d="M26.28 93.838c-4.192-.87-10.35-2.5-10.352-6.473 0-.015-.084-.994-.08-1.7.002-.2.01-.427.03-.667l.025-.167-.132-.436c-.045-.23-.068-.47-.068-.72 0-4.01 6.218-5.66 10.346-6.525 5.487-1.152 12.96-1.848 21.143-1.848 8.182 0 15.656.696 21.143 1.847 4.218.884 10.347 2.542 10.347 6.524 0 .25-.025.492-.072.726l.15.755c.12.938.15 1.864.15 2.206 0 4.006-6.257 5.63-10.353 6.478-5.485 1.138-12.958 1.824-21.138 1.824-8.18 0-15.652-.686-21.137-1.824z" fill="#537098"/><g stroke-linecap="round"><path d="M47.417 81.296c13.53 0 25.17-.337 28.51 2.252.648.5.747 3.27.747 3.813 0 3.35-13.107 6.07-29.257 6.07-16.147 0-29.255-2.72-29.255-6.07 0-.544-.323-2.734.33-3.238 3.354-2.584 15.41-2.826 28.925-2.826z" fill="#829bbc"/><path d="M47.19 77.535c16.15 0 29.257 2.75 29.257 6.14 0 3.386-13.107 6.137-29.256 6.137-16.148 0-29.255-2.75-29.255-6.138s13.107-6.14 29.256-6.14z" fill="#537098"/></g></g><path d="M18.708 73.118c-1.923-9.358 5.14-20.65 10.968-30.3-5.332-3.262-6.91-11.016-1.153-15.485 5.452-4.232 5.01-15.562 8.862-15.52 1.04.01 3.34 3.83 3.71 4.383 2.61-1.358 10.365-1.26 13.083 0 .336-.333 2.282-4.55 3.063-4.504 3.863.223 2.963 11.38 8.87 15.252 5.547 3.637 5.044 12.11-.642 15.476 5.884 9.247 13.154 21.208 11.205 30.698-2.906 14.14-17.197 14.226-29.358 14.757-12.16-.53-25.7-.616-28.607-14.757z" stroke-width="2.25" fill="#f68634" stroke="#a75214" stroke-linejoin="round" stroke-linecap="round" stroke-miterlimit="79.84"/><g fill="#a75214" stroke-linejoin="round" stroke-linecap="round" stroke="none" stroke-width=".75" stroke-miterlimit="79.84"><path d="M23.08 55.355c1.45 2.175 7.44 7.176 8.465 4.947.484-2.23-4.582-3.968-7.602-8.534l-.863 3.587zM20.47 60.122c1.31 1.967 6.726 6.49 7.652 4.474.44-2.015-4.143-3.588-6.872-7.718l-.78 3.244zM18.396 64.564c1.17 1.757 6.016 5.8 6.843 4 .392-1.803-3.705-3.21-6.148-6.902l-.696 2.902z"/></g><g fill="#a75214" stroke-linejoin="round" stroke-linecap="round" stroke="none" stroke-width=".75" stroke-miterlimit="79.84"><path d="M71.957 54.905c-1.45 2.175-7.44 7.176-8.465 4.947-.484-2.23 4.582-3.968 7.602-8.534l.863 3.587zM74.568 59.672c-1.31 1.967-6.727 6.49-7.653 4.474-.44-2.015 4.143-3.588 6.872-7.718l.78 3.244zM76.64 64.114c-1.17 1.757-6.015 5.8-6.842 4-.393-1.803 3.704-3.21 6.147-6.902l.696 2.902z"/></g><path d="M32.178 73.56c.812 3.71 4.36 16.42 8.723 15.008 3.08-.257 2.332-13.467.77-16.677-1.578-3.246-7.66-1.424-9.492 1.67zM62.723 73.623c-.81 3.712-4.15 16.006-8.724 15.01-3.188-.222-2.33-13.468-.77-16.678 1.58-3.247 7.66-1.426 9.493 1.668z" fill="#f68634" stroke="#a75214" stroke-linejoin="round" stroke-linecap="round" stroke-width="1.5" stroke-miterlimit="79.84"/><path d="M31.407 75.76c.07-1.583 1.225-1.786 2.556-1.08 1.62.854 2.033 3.815 4.934 2.895.957-.305 2.66-5.326 4.2-2.86.38.613.973 2.748 1.262 2.982 5.52.994-.128-5.808-3.46-8.5-7.814-6.314-13.478-.095-9.493 6.563zM64.197 76.244c-.003-1.583-1.346-2.628-2.707-1.98-1.655.79-2.908 4.313-5.768 3.272-.943-.342-2.438-5.43-4.077-3.03-.406.596-1.086 2.706-1.384 2.928-5.56.764 1.892-6.903 5.33-9.454 8.068-5.99 12.865 1.776 8.607 8.264z" fill="#f68634" stroke="none"/><path d="M39.74 21.265c2.522 0 4.57 2.048 4.57 4.57 0 2.522-2.048 4.57-4.57 4.57-2.522 0-4.57-2.048-4.57-4.57 0-2.522 2.048-4.57 4.57-4.57zM55.456 21.265c2.522 0 4.57 2.048 4.57 4.57 0 2.522-2.048 4.57-4.57 4.57-2.522 0-4.57-2.048-4.57-4.57 0-2.522 2.048-4.57 4.57-4.57z" stroke-width="1.5" stroke="#a75214" fill="#fff" stroke-linecap="round" stroke-linejoin="round" stroke-miterlimit="79.84"/><path d="M35.794 26.594c4.557 0 8.256 2.767 8.256 6.175 0 3.407-3.7 6.174-8.256 6.174-4.557 0-8.256-2.767-8.256-6.175 0-3.41 3.7-6.176 8.256-6.176zM59.378 26.595c4.557 0 8.256 2.767 8.256 6.175s-3.7 6.175-8.256 6.175c-4.557 0-8.256-2.767-8.256-6.175s3.7-6.175 8.256-6.175z" fill="#f68634" stroke="none"/><path d="M31.74 43.146c2.158 7.128 7.092 18.442 15.148 22.614.85.44 2.038.398 2.872-.07 7.786-4.398 12.074-15.38 14.43-22.617 1.796-1.22 1.966-5.584.86-8.04-.962-2.143-2.01-3.374-5.742-4.092-7.282-1.4-17.512-2.545-24.697.36-3.373 1.363-3.905 2.922-4.378 4.88-.635 2.624-.43 5.17 1.507 6.966z" fill="#feb761" stroke="none"/><path d="M27.333 28.43c3.664-3.55 11.8-2.443 15.03 1.29M67.814 28.428c-3.663-3.55-12.024-2.226-15.254 1.22" stroke-width="1.5" stroke="#a75214" stroke-linecap="round" stroke-linejoin="round" stroke-miterlimit="79.84"/><path d="M46.73 32.87c-1.403-.615-3.65-2.475-3.063-3.31.425-.61 1.93-.682 2.7-.753 1.4-.124 2.117-.053 3.507.152 3.727.548.23 3.596-2.315 4.098-.19.04-.483-.036-.83-.19z" fill="#a75214" stroke="none"/><path d="M47.496 29.78c.935 0 1.694.263 1.694.585 0 .322-.76.584-1.694.584-.935 0-1.694-.263-1.694-.585 0-.322.76-.584 1.694-.584z" fill="#feb761" stroke="none"/><path d="M41.234 21.608c.922 0 1.67.748 1.67 1.67 0 .922-.748 1.67-1.67 1.67-.922 0-1.67-.748-1.67-1.67 0-.922.748-1.67 1.67-1.67zM56.706 21.608c.922 0 1.67.748 1.67 1.67 0 .922-.748 1.67-1.67 1.67-.922 0-1.67-.748-1.67-1.67 0-.922.748-1.67 1.67-1.67z" fill="#a75214" stroke="none"/><path d="M47.605 32.448v2.396M44.806 34.962h5.456M51.862 32.847c-.613.235-1.53 2.12-1.09 3.52M43.19 32.96c.64.153 1.8 1.896 1.55 3.343M28.515 41.966c1.55 1.395 4.55 1.747 6.597.913M66.228 41.924c-1.378 1.266-4.082 1.62-5.94.903" stroke="#a75214" stroke-width="1.5" stroke-linecap="round" stroke-linejoin="round" stroke-miterlimit="79.84"/><path d="M47.58 1.15c1.038 0 1.88.842 1.88 1.88 0 1.038-.842 1.88-1.88 1.88-1.038 0-1.88-.842-1.88-1.88 0-1.038.842-1.88 1.88-1.88z" stroke-width="1.875" stroke="#829bbc" stroke-linecap="round" stroke-linejoin="round" stroke-miterlimit="79.84"/><path d="M3.415 4.21c-1.053 2.694.846 6.81 5.156 7.545 3.305.563 5.087-3.204 3.51-5.256-1.153-1.505-5.412-5.11-7.606-3.576-.53.372-.873.81-1.06 1.285z" fill="#ef7096" stroke="#a32964" stroke-width="1.5" stroke-linecap="round" stroke-linejoin="round" stroke-miterlimit="79.84"/><path d="M5.295 4.916c2.24 3.993 8.4 7.273 12.875 5.037" stroke="#a32964" stroke-width="1.5" stroke-linecap="round" stroke-linejoin="round" stroke-miterlimit="79.84"/><g stroke-linejoin="round" stroke-linecap="round" stroke="#a75214" stroke-width="1.5" fill="none" stroke-miterlimit="79.84"><path d="M21.596 30.188l9.382 2.83M24.277 25.72l7.744 4.17"/></g><g stroke-linejoin="round" stroke-linecap="round" stroke="#a75214" stroke-width="1.5" fill="none" stroke-miterlimit="79.84"><path d="M73.49 30.19l-9.382 2.83M70.81 25.722l-7.744 4.17"/></g><g stroke-linejoin="round" stroke-linecap="round" transform="matrix(1 0 0 -1 0 96)"><path d="M47.362 103.563c18.695 0 79.496-43.806 33.87-91.734 0-3.073-15.175-5.566-33.87-5.566-18.695 0-33.87 2.493-33.87 5.565-43.717 55.823 15.175 91.733 33.87 91.733z" stroke="none"/><clipPath id="a"><path d="M13.493 11.83c-43.718 55.823 15.174 91.733 33.87 91.733 18.694 0 79.495-43.806 33.868-91.734 0-3.073-15.173-5.566-33.868-5.566s-33.87 2.493-33.87 5.565z"/></clipPath><g stroke="#829bbc" stroke-width="2.25" stroke-miterlimit="79.84" clip-path="url(#a)"><path d="M47.52 91.087c22.194 0 40.205-20.65 40.205-46.09 0-25.443-18.01-46.092-40.204-46.092-22.192 0-40.203 20.65-40.203 46.09 0 25.443 18.01 46.092 40.204 46.092z"/><path d="M47.52 91.087c16.25 0 29.436-20.65 29.436-46.09 0-25.443-13.187-46.092-29.435-46.092-16.247 0-29.434 20.65-29.434 46.09 0 25.443 13.187 46.092 29.435 46.092z"/><path d="M47.52 91.087c7.73 0 14-20.65 14-46.09 0-25.443-6.27-46.092-14-46.092-7.727 0-14 20.65-14 46.09 0 25.443 6.273 46.092 14 46.092z"/></g></g></g></svg>