<svg stroke-width=".501" stroke-linejoin="bevel" fill-rule="evenodd" xmlns="http://www.w3.org/2000/svg" overflow="visible" width="128" height="128" viewBox="0 0 96 96"><g stroke-linejoin="round" fill="none" stroke="#000" font-family="Times New Roman" font-size="16"><path d="M48.99 76.313c21.476 1.172 38.905 6.244 38.905 11.32 0 5.074-17.43 8.24-38.904 7.068-21.474-1.17-38.903-6.243-38.903-11.318 0-5.075 17.43-8.242 38.904-7.07z" fill="#000" fill-opacity=".298" stroke="none"/><path d="M36.49 90.627l.115-.82-3.992-.833c-2.122-.628-4.056-1.405-5.728-2.323-1.27-.694-2.42-1.403-3.46-2.126l-2.502-1.97-3.035.723c-2.84.387-12.212 1.788-12.907-4.43-.214-1.93.217-3.687 3.12-5.32 1.664-.936 3.34-2.034 4.993-3.224l1.082-.844-.37-2.64c-.257-4.95 1.41-9.612 3.88-14.046l.523-.843-.47-2.703c-.017-2.17.62-4.342 1.624-5.846 2.16-3.235 6.04-5.87 9.524-7.392l.54-.216 2.157-3.553c1.622-3.04 3.204-6.707 4.85-10.423l2.132-4.67-.273-.96c-.95-3.458-3.176-12.626-.62-15.14C39.4-.67 42.61.532 45.49 2.402L48.6 4.847l2.558-1.197c4.91-1.732 10.49-1.73 14.767.103l2.367 1.536 3.59-2.055c2.864-1.395 5.973-2.34 8.06-1.5 5.807 2.332.254 17.4-.35 18.797l-.116.128.864 1.73c4.727 10.837 7.233 23.96 6.3 35.46l-1.1 6.432.082.225c-.275 7.34 4.06 12.37 3.216 18.766-1.494 11.34-13.62 14.192-22.403 9.266l-3.144-2.31-1.8.96c-4.04 1.892-8.308 3.352-12.094 3.867-2.834.385-12.21 1.787-12.906-4.43zm40.67-9.795l-1.306 1.202-.305-.025c1.497.334 1.748-.37 1.61-1.178z" fill="#a75214" stroke="none"/><g stroke-linecap="round" fill="#f68634"><path d="M40.063 16.837c-.814-2.785-3.3-12.783-1.326-14.725 1.94-1.907 10.4 4.358 11.19 6.26-3.797 1.985-6.582 5.345-9.128 8.76l-.737-.295zM8.847 74.85c-2.355 1.325-2.505 2.483-2.355 3.83.48 4.298 7.208 3.633 11.19 3.09 7.23-.983 16.483-5.643 22.087-10.01 11.118-8.672-3.734-20.11-12.518-11.634-4.56 4.4-11.56 10.875-18.405 14.724z" stroke-width="1.5" stroke="#a75214" stroke-miterlimit="79.84"/><path d="M15.324 66.74c-.66-12.687 11.638-22.627 17.6-33.806 3.563-6.674 6.153-14.365 10.058-21.092 5.03-8.66 19.6-10.37 25.66-4.547 15.467 14.86 23.142 53.176 9.85 69.47-8.8 13.828-37.884 15.677-50.876 8.553-9.642-5.288-11.904-11.164-12.292-18.58z" stroke-width="1.5" stroke="#a75214" stroke-miterlimit="79.84"/><path d="M40.357 86.63C38 87.955 37.85 89.112 38 90.458c.483 4.3 7.21 3.633 11.192 3.092 7.23-.983 16.484-5.644 22.086-10.012 11.12-8.67-3.732-20.108-12.516-11.633-4.56 4.403-11.56 10.875-18.405 14.725zM29.495 37.38c-3.333 1.455-6.927 3.937-8.868 6.845-1.76 2.634-2.037 7.416.44 9.717.67.62 1.532.76 2.358.442 5.202-2.008 2.617-9.072 3.09-11.78.012-.057 3.852-5.288 4.27-5.742-.422.154-.853.327-1.29.518z" stroke-width="1.5" stroke="#a75214" stroke-miterlimit="79.84"/><path d="M53.02 75.586c1.817-.96 2.677 1.235 1.472 2.062l16.49 4.712c3.768-.795 11.928-9.865 2.8-13.253-3.32-1.23-16.816-4.06-16.27 1.62.125.226-4.513 4.595-4.492 4.86z" stroke="none"/><path d="M84.104 64.45c-.305 8.137 4.032 12.518 3.228 18.624-1.474 11.187-15.226 13.476-23.37 5.774-4.402-3.556-7.464-12.154-2.37-13.978 5.84-1.233 9.442 7.69 13.627 8.622 4.225.943 4.014-3.525 2.386-5.4 1.634-1.634 5.884-10.19 6.498-13.642zM66.27 8.592c2.425-2.098 9.938-6.72 13.106-5.448 3.92 1.575-.016 14.094-1.178 16.785-1.72-.29-10.37-8.318-11.853-10.013l-.074-1.325z" stroke-width="1.5" stroke="#a75214" stroke-miterlimit="79.84"/><path d="M64.058 7.566c1.452 1.183 2.642 1.17 4.418 1.178.41 3.63 7.772 5.446 9.128 7.804.23.62.14 4.34.295 5.3-4.297 4.63-14.06-8.727-15.02-12.368-.162-.617.23-.934.59-1.03-.03-.375.165-.67.588-.884z" stroke="none"/></g><path d="M38.094 87.873c-3.77.127-9.79-2.47-14.527-6.007-3.66-11.023.45-19.084 3.043-23.044 3.74-5.71 9.95-11.787 16.883-12.624 12.955.07 12.05 25.463 7.985 31.333-.87 1.257-14.002 9.935-13.384 10.343z" fill="#feb761" stroke="none"/><path d="M78.324 74.64c1.926-3.08 1.207-9.93 3.713-12.81.475-.216 1.57-.373 1.75-.018-.673 3.082-.85 4.082-.42 6.42.274 1.495 2.03 6.223 1.64 7.91-.06.255-1.034.43-1.342.527-.81.256-1.643-.43-2.5-.457.22-.402.45-1.34-.204-1.684-.388.04-1.067-.758-1.647-.193-.207.272-.712.363-.99.304z" fill="#f68634" stroke="none"/><path d="M43.53 27.95c2.317 4.697 9.238 3.09 9.733.294.64-3.593-7.618-2.844-9.125-1.676-.593.25-.817.7-.61 1.383z" fill="#a75214" stroke="none"/><path d="M37.33 20.636c.172-.892.584-1.68 1.158-2.305l7.934 1.528c.3.795.392 1.678.22 2.57-.495 2.57-2.982 4.255-5.552 3.76-2.57-.494-4.256-2.982-3.76-5.552z" stroke-linecap="round" stroke-width="1.5" stroke="#a75214" fill="#fff" stroke-miterlimit="79.84"/><path d="M47.9 26.71c1.023 0 1.855.406 1.855.905 0 .5-.832.904-1.856.904-1.025 0-1.857-.406-1.857-.905 0-.5.832-.904 1.856-.904z" fill="#f8dab6" stroke="none"/><path d="M54.922 24.34c.193-1.006.658-1.89 1.303-2.596l8.938 1.72c.338.894.44 1.89.248 2.896-.556 2.893-3.358 4.792-6.253 4.235-2.894-.558-4.792-3.36-4.235-6.254z" stroke-linecap="round" stroke-width="1.5" stroke="#a75214" fill="#fff" stroke-miterlimit="79.84"/><path d="M48.512 30.912c.128.472.488 2.634.913 2.814.213.09.62-.005 1.13-.12.22-.012.583-.135.85-.17.564-.09 1.174-.117 1.746.062 2.9.91 3.667 3.935 2.51 6.54-1.8 4.058-8.365 2.89-6.996.152.29-.58 2.183-.914 2.433-.456" stroke-width="1.5" stroke="#a75214" stroke-linecap="round" stroke-miterlimit="79.84"/><path d="M85.625 27.26z" fill="#000" stroke="none"/><path d="M52.315 34.03c.54.337 1.05.81 1.368 1.37 1.6 2.816-2.818 3.762-4.562 4.03-.427.394-.557 1.22-.076 1.673 2.142 2.01 6.68.09 6.54-3.27-.06-1.49-1.17-3.758-2.965-3.46l-.305-.343z" fill="#502c11" stroke="none"/><path d="M58.095 23.193c0-.33.068-.644.193-.93l4.44.837c.002.03.003.063.003.093 0 1.28-1.038 2.317-2.317 2.317-1.28 0-2.318-1.038-2.318-2.317zM40.602 19.58c0-.29.06-.567.164-.82l4.093.77v.05c0 1.174-.954 2.128-2.128 2.128-1.175 0-2.13-.954-2.13-2.128z" fill="#a75214" stroke="none"/><path d="M58.026 46.727c-1.06 2.437-2.406 5.436-4.122 7.51-3.534 4.27-9.53 6.534-8.246 9.276 3.24 6.92 21.41-4.066 23.56-10.16" stroke-linecap="round" stroke-width="1.5" stroke="#a75214" stroke-miterlimit="79.84"/><path d="M69.235 11.707c2.29-1.324 4.583-4.64 7.452-4.41 1.744 1.464-.948 9.01-1.977 9.835-1.32-1.345-4.185-4.32-5.628-4.664l.153-.76zM41.38 11.923c-.475-1.287-1.847-5.083-1.197-5.996.84-1.178 4.197 1.482 4.716 2.282-.844.597-3.2 2.93-3.45 3.902l-.07-.19z" fill="#feb761" stroke="none"/><path d="M58.74 34.978c2.31 1.342 3.278 3.636 4.715 5.628M61.02 33.457c1.83.867 3.54 2.11 5.02 3.5M37.75 37.108c1.682-1.402 3.75-2.79 6.084-3.194M37.446 33c1.416-1.018 3.876-1.44 5.627-1.52M47.323 16.92c.27-1.28.402-3.315-.27-4.716M45.546 16.69c-.128-1.013-.027-1.936-.304-2.965M56.877 18.973c.784-2.157 2.078-4.226 3.803-5.704M59.615 18.516c.613-1.078 1.43-2.19 2.586-2.737" stroke-width="1.125" stroke="#a75214" stroke-linecap="round" stroke-miterlimit="79.84"/><path d="M84.636 44.83c-1.52 1.444-8.008 3.412-7.873.057 1.612-2.713 5.08-1.855 7.148-4.366.15 1.212.288 3.297.726 4.31zM85.7 51.674c-1.52 1.443-8.007 3.413-7.872.057 1.612-2.71 5.08-1.854 7.148-4.364.15 1.21.287 3.295.725 4.308zM85.472 58.898c-1.52 1.444-8.007 3.414-7.872.058 1.61-2.713 5.08-1.855 7.148-4.365.148 1.212.286 3.297.724 4.308z" fill="#a75214" stroke="none"/><path d="M44.037 85.7c2.452.78 4.374 6.248 3.014 7.38-.507.425-2.3.334-3.037.305-3.14-.127-7.79-2.284-3.638-5.815.915-.78 2.928-1.52 3.35-1.942.104.015.208.04.312.072zM12.2 74.063c2.325.758 4.145 6.063 2.857 7.162-.48.412-2.182.326-2.88.297-2.976-.124-7.383-2.217-3.45-5.645.87-.756 2.777-1.475 3.177-1.885.1.016.197.038.296.07zM19.993 48.73c.103 1.666.988 5.87 3.737 4.69 2.644-1.134 2.08-4.4 1.987-6.46-3.056-.487-3.548.46-5.365 1.46l-.36.31zM61.973 85.06c-.477-.238-1.56-2.562-1.75-3.118-.32-.938-.915-3.084-.684-4.03 1.406-5.77 7.756-.61 9.202 1.825-.305 2.13-4.947 6.232-6.77 5.323z" fill="#feb761" stroke="none"/></g></svg>