<svg stroke-width=".501" stroke-linejoin="bevel" fill-rule="evenodd" xmlns="http://www.w3.org/2000/svg" overflow="visible" width="128" height="128" viewBox="0 0 96 96"><g fill="none" stroke="#000" font-family="Times New Roman" font-size="16"><path d="M45.144 83.37c21.642 0 39.207 2.546 39.207 5.682 0 3.136-17.564 5.68-39.206 5.68-21.642 0-39.207-2.544-39.207-5.68 0-3.136 17.565-5.68 39.207-5.68z" fill="#000" fill-opacity=".298" stroke="none"/><g stroke-linejoin="round"><path d="M41.435 91.876l-.974-.59-1.476-.105c-2.048-.3-4.002-.744-5.864-1.326l-1.096-.443-.688.686c-1.897 1.567-3.92 2.582-5.572 2.354-3.114-.43-3.362-3.243-3.138-5.02l.59-2.527-.177-.11-.683-.566-1.217 2.183c-2.165 3.16-4.993 5.445-6.98 5.1-2.845-.495-2.874-3.492-2.723-5.01.184-1.84.83-3.93 1.106-4.98.29-1.098.606-2.458.845-3.827l.272-2.838-2.367-3.928C5.958 61.042 3.22 48.305 2.765 34.263l-.042-1.747-.792-.42c-.503-.46-.812-1.037-.812-1.755 0-.72.307-1.296.81-1.756l.715-.38-.02-4.2c.027-3.462.145-6.6.42-8.324-.033.21.678-8.093 4.674-7.878 2.973.16 5.122 4.503 6.163 7.275l.206.592 2.917-.765c1.484-.258 2.976-.396 4.47-.44l7.665.528.383-1.032c1.227-2.995 3.795-7.42 7.374-6.646 3.554.772 5.284 8.796 5.734 11.917l.105.903c.342 2.564 2.056 5.964 3.568 8.516 4.416 7.447 11.557 14.138 18.363 19.858 3.865 3.25 7.652 7 10.42 11.602 1.035 1.724 1.754 3.44 2.193 5.133l.098.948.108.143c.93 1.685 1.528 5.147 1.065 8.937l-1.098 4.556-.022.055-1.902 3.88c-5.643 8.166-18.54 9.29-24.152 9.404-3.563.074-6.54.14-9.94-1.288z" fill="#a75214" stroke="none"/><g stroke-linecap="round"><path d="M15.26 73.774c.06 2.503-.686 5.923-1.266 8.128-.606 2.302-2.37 7.644.422 8.13 3.598.624 13.84-14.534 4.648-17.19-1.166-.338-3.16-.342-3.803.932z" fill="#f68634" stroke="#a75214" stroke-width="1.5" stroke-miterlimit="79.84"/><path d="M41.248 20.33c-.153-2.37-2.007-10.972-4.67-11.55-3.08-.667-5.86 5.567-6.36 7.786-5.854-.85-11.628-1.063-17.13.91-.485-1.937-2.856-8.04-5.45-8.177-2.053-.11-2.874 5.112-3.113 6.615-.522 3.273-.458 12.223-.26 18.3 1.037 31.922 13.828 55.92 41.148 55.92 1.947 0 7.135.895 12.964-.77 12.2-3.486 22.907-16.034 15.42-28.482-2.645-4.398-6.29-8.026-10.1-11.227-6.82-5.734-14.133-12.56-18.686-20.243-1.51-2.55-3.377-6.185-3.762-9.084z" fill="#f68634" stroke-width="1.5" stroke="#a75214" stroke-miterlimit="79.84"/><path d="M8.642 24.234C6.154 27.7 6.25 32.174 6.172 36.18c-.097 4.946 1.367 14.508 4.957 20.358 2.445 3.986 6.323 9.11 10.933 8.973 5.798.138 11.374-7.805 13.57-14.003 3.313-9.345 5.983-24.834-2.423-29.75-3.984-2.33-7.62-3.53-13.38-2.965-5.794.568-9.192 2.66-11.188 5.442z" fill="#feb761" stroke="none"/><path d="M27.024 74.88c.072 2.476-.86 5.86-1.582 8.042-.756 2.276-2.96 7.56.527 8.042 4.49.62 17.273-14.38 5.8-17.008-1.455-.332-3.946-.338-4.746.923z" fill="#f68634" stroke="#a75214" stroke-width="1.5" stroke-miterlimit="79.84"/><path d="M25.74 75.823c.218-.157.522-.803.817-.882 1.668-.435 1.466 1.323 2.465 2.2 1.287 1.13 6.24 1.627 6.463 2.332 1.897-1.002 1.522.217 1.933 1.334 3.82-.377 3.375-5.05 1.866-7.596-2.15-3.63-6.165-5.065-10.262-4.598-3.173.362-5.393 4.825-3.29 7.216.002 0 .005-.003.007-.005z" fill="#f68634" stroke="none"/><path d="M70.3 78.666c3.332-2.797 1.105-15.98 5.596-11.997.932.826 2.357 6.75.133 12.685-3.373 10.612-18.024 12.172-24.686 12.31-3.59.073-6.262.117-9.328-1.172-.996-.418-1.888-1.057-2.1-2.037-1.565-7.2 10.832-6.386 17.824-6.58 4.93-.14 9.21-.4 12.56-3.21z" fill="#f68634" stroke-width="1.5" stroke="#a75214" stroke-miterlimit="79.84"/><path d="M73.328 74.11c-.152-.024-.3-.057-.443-.1-.154-.242-.142-.646-.42-.8-.422-.042-.515.035-.862.148-2.875-2.146-4.002-8.057-2.17-10.112.572-.64 1.356-.462 2.132-.532 4.536-.42 5.037 8.953 3.198 11.326-.503.123-.982.14-1.435.07z" fill="#f68634" stroke="none"/><path d="M31.322 28.176c3.292 0 5.964.97 5.964 2.165 0 1.196-2.672 2.166-5.964 2.166-3.292 0-5.964-.97-5.964-2.165 0-1.194 2.672-2.164 5.964-2.164zM8.68 28.376c3.348 0 6.064.88 6.064 1.965 0 1.086-2.716 1.966-6.063 1.966-3.346 0-6.062-.88-6.062-1.965 0-1.084 2.716-1.964 6.063-1.964z" stroke-width="1.5" stroke="#a75214" fill="#fff" stroke-miterlimit="79.84"/><path d="M13.55 27.368c-.167-.605-.425-1.54-.464-2.132M15.198 27.567c-.083-.822-.303-1.73-.5-2.464M23.892 27.567c.105-.857.395-1.647.6-2.464M25.49 27.567c.058-.857.41-1.67.6-2.464" stroke-width="1.125" stroke="#a75214" stroke-miterlimit="79.84"/><path d="M11.982 28.135c1.295 0 2.348.948 2.348 2.115 0 1.167-1.053 2.115-2.348 2.115s-2.348-.948-2.348-2.115c0-1.167 1.053-2.115 2.348-2.115zM34.613 28.136c1.296 0 2.35.948 2.35 2.115 0 1.168-1.054 2.116-2.35 2.116s-2.35-.948-2.35-2.115c0-1.166 1.054-2.114 2.35-2.114zM19.267 37.026c-1.51-.73-3.927-2.937-3.29-3.92.46-.715 2.085-.796 2.918-.874 1.508-.14 2.282-.054 3.78.194 4.02.664.234 4.245-2.512 4.827-.203.044-.522-.046-.896-.227z" fill="#a75214" stroke="none"/><path d="M7.834 37.962c1.8-.733 3.852-1.69 5.664-2.4M9.743 40.85c1.57-1.38 3.266-2.556 4.91-3.846M33.353 37.83c-1.665-.734-4.022-1.626-5.833-2.333M31.985 40.495c-1.747-1.154-3.59-2.082-5.398-3.132" stroke-width="1.125" stroke="#a75214" stroke-miterlimit="79.84"/><path d="M33.302 17.214c-.445-1.925 1.654-4.986 3.35-4.474 2.632.797 1.863 10.978-3.245 4.798-.043-.104-.078-.213-.105-.324zM7.202 19.2c-.826-1.584-.958-4.302-.202-5.86 2.082-.417 5.385 5.106.4 6.198-.07-.106-.136-.22-.198-.338z" fill="#feb761" stroke="none"/><path d="M56.208 43.226c-.862 1.994-2.805 4.4-4.332 5.93l-.798.666c-.793.684-4.97 3.475-3.865 4.997.223.307 1.21.358 1.532.333 2.938-.23 10.316-6.32 10.136-9.244-.51-.365-.85-.898-1.273-1.35l-1.4-1.334zM61.47 48.023c-.86 1.994-2.803 4.4-4.33 5.93l-.8.666c-.79.683-4.967 3.475-3.864 4.997.223.308 1.212.358 1.533.333 2.936-.23 10.316-6.32 10.135-9.244-.51-.363-.852-.897-1.274-1.35l-1.4-1.333zM67.6 53.487c-.86 1.995-2.804 4.4-4.33 5.93l-.8.667c-.79.682-4.967 3.474-3.863 4.997.222.308 1.21.358 1.53.333 2.94-.228 10.317-6.32 10.138-9.244-.513-.364-.852-.897-1.275-1.35l-1.4-1.333z" fill="#a75214" stroke="none"/></g></g><path d="M74.063.384c11.277 0 20.43 5.668 20.43 12.65 0 6.984-9.153 12.652-20.43 12.652s-20.43-5.668-20.43-12.65c0-6.984 9.153-12.652 20.43-12.652z" stroke="#8391a9" stroke-width="1.5" fill="#fff" stroke-linecap="round" stroke-linejoin="round" stroke-miterlimit="79.84"/><path d="M88.66 13.303c2.283.29 3.69.99 3.582 2.134-.09.946-2.125 1.103-2.44 1.144-4.013.523-4.038 2.287-8.23 3.354-4.023 1.023-8.874 1.3-13.26.686-3.812-.534-3.508-2.066-7.317-3.506-.51-.193-4.225-.877-4.497-1.753-.784-2.533 8.52-1.13 10.097-1.185 6.684-.232 12.458-.737 19.21-.737l2.855-.135z" fill="#e7c22f" stroke="none"/><g stroke-linejoin="round" stroke-linecap="round" stroke="#5c67a7" stroke-width="1.125" fill="#8e99de" stroke-miterlimit="79.84"><path d="M70.423 9.265c6.222-.556 11.376.148 11.503 1.57.127 1.423-4.822 3.03-11.045 3.586-6.22.557-11.375-.147-11.502-1.57-.127-1.422 4.822-3.03 11.045-3.585z"/><path d="M58.14 13.03c-.67-2.952 2.93-5.513 5.18-6.334 1.336-.488 3.03-1.093 4.468-.53 1.32.518 2.445 2.15 2.802 3.29.558 1.775.638 4.395-.363 4.752-1.944.7-5.4.547-7.42.404-4.18-.308-4.504-1.488-4.667-1.582z"/></g><path d="M50.742 20.69c2.397 0 4.344 1.205 4.344 2.69 0 1.485-1.947 2.69-4.344 2.69-2.397 0-4.344-1.205-4.344-2.69 0-1.485 1.947-2.69 4.344-2.69z" stroke="#8391a9" stroke-width="1.5" fill="#fff" stroke-linecap="round" stroke-linejoin="round" stroke-miterlimit="79.84"/><path d="M60.157 9.792c-.04-1.42 3.664-3.652 5.522-3.142.492.136.987.718 1.023 1.23.25 3.554-5.163 3.726-6.353 2.39-.126-.14-.188-.303-.193-.478z" fill="#b0baf8" stroke="none"/><g stroke-linejoin="round" stroke-linecap="round" stroke="#5c67a7" stroke-width="1.125" fill="#8e99de" stroke-miterlimit="79.84"><path d="M77.367 11.118c6.224-.556 11.377.148 11.504 1.57.128 1.423-4.82 3.03-11.045 3.586-6.224.556-11.377-.148-11.504-1.57-.126-1.423 4.823-3.03 11.047-3.586z"/><path d="M65.086 14.884c-.67-2.95 2.927-5.512 5.177-6.334 1.337-.488 3.033-1.094 4.47-.53 1.318.52 2.445 2.152 2.804 3.29.556 1.774.635 4.395-.366 4.753-1.943.697-5.397.548-7.417.402-4.18-.305-4.506-1.488-4.667-1.58z"/></g><path d="M67.14 11.517c-.042-1.42 3.663-3.652 5.52-3.142.493.136.99.717 1.025 1.23.25 3.554-5.163 3.726-6.354 2.39-.126-.142-.187-.304-.19-.478z" fill="#b0baf8" stroke="none"/><path d="M78.03 13.117c1.216.326 7.012-.31 7.426-1.458-1.527-.866-6.06-.65-7.85-.397.043.595.874 1.56.673 2.327l-.25-.473z" fill="#5c67a7" stroke="none"/><path d="M74.755 13.99c1.787.352 5.623.124 6.132.97-.51.763-6.555.995-8.308.782-.694-.714 1.16-1.392 2.175-1.753z" fill="#8e99de" stroke="none"/><path d="M19.878 33.347c.946 0 1.715.308 1.715.686 0 .378-.77.686-1.715.686-.946 0-1.715-.31-1.715-.687 0-.378.77-.686 1.715-.686z" fill="#f68634" stroke="none"/></g></svg>